<svg width="563" height="133" viewBox="0 0 563 133" fill="none" xmlns="http://www.w3.org/2000/svg">
<path d="M42.9336 119.233H29.8555L65.6232 0.110718H78.7022L42.9336 119.233Z" fill="#06487A"/>
<path d="M56.825 7.94563L54.28 5.40063L0.00878906 59.6718L31.7581 91.4211L56.825 7.94563Z" fill="white"/>
<path d="M76.8013 27.9216L51.7344 111.397L54.2794 113.942L108.551 59.6709L76.8013 27.9216Z" fill="white"/>
<path d="M156.149 115.454C156.151 115.888 156.071 116.318 155.915 116.722C155.539 117.439 154.895 117.979 154.123 118.222C153.789 118.293 153.45 118.333 153.109 118.339H145.436C144.985 118.355 144.535 118.282 144.112 118.124C143.793 117.995 143.511 117.788 143.294 117.521C143.07 117.232 142.893 116.91 142.768 116.566C142.625 116.19 142.476 115.781 142.321 115.339L141.814 113.584C141.064 114.327 140.264 115.017 139.418 115.648C138.49 116.343 137.499 116.95 136.458 117.459C135.348 118.003 134.187 118.434 132.991 118.744C131.738 119.071 130.449 119.235 129.154 119.232C126.859 119.241 124.572 118.94 122.358 118.337C118.116 117.184 114.254 114.934 111.16 111.812C108.045 108.678 105.803 104.784 104.655 100.517C104.051 98.2755 103.75 95.9636 103.759 93.6424C103.733 90.2756 104.374 86.9369 105.644 83.8187C106.914 80.7005 108.788 77.8643 111.159 75.4733C113.52 73.1132 116.327 71.2455 119.416 69.9785C122.505 68.7116 125.814 68.0706 129.153 68.0927C130.67 68.0812 132.182 68.2644 133.652 68.6378C134.979 68.9775 136.26 69.4744 137.469 70.118C138.605 70.7291 139.659 71.4827 140.605 72.3608C141.522 73.2121 142.345 74.1603 143.058 75.1886L144.187 71.6441C144.447 70.994 144.661 70.4681 144.83 70.0663C144.953 69.736 145.138 69.432 145.375 69.1702C145.573 68.9739 145.823 68.8385 146.095 68.7802C146.494 68.7056 146.899 68.673 147.304 68.6827H153.106C153.447 68.6888 153.786 68.728 154.12 68.7997C154.504 68.8753 154.857 69.0656 155.132 69.3458C155.47 69.5994 155.739 69.9349 155.912 70.3209C156.074 70.716 156.153 71.14 156.146 71.567L156.149 115.454ZM117.784 93.6433C117.771 95.2808 118.042 96.9081 118.583 98.4535C119.078 99.8841 119.852 101.202 120.862 102.33C121.859 103.428 123.072 104.309 124.425 104.917C125.876 105.567 127.451 105.893 129.04 105.872C130.704 105.887 132.355 105.562 133.889 104.917C135.34 104.31 136.663 103.431 137.785 102.328C138.898 101.222 139.779 99.9037 140.375 98.4516C141.621 95.3861 141.621 91.9552 140.375 88.8897C139.77 87.4137 138.891 86.0658 137.785 84.9172C136.674 83.7706 135.351 82.8512 133.889 82.2103C132.361 81.5409 130.708 81.2022 129.04 81.2166C127.446 81.1963 125.869 81.536 124.425 82.2103C123.061 82.8534 121.846 83.7756 120.861 84.9172C119.858 86.0865 119.085 87.4342 118.582 88.8897C118.046 90.417 117.776 92.0248 117.784 93.6433Z" fill="white"/>
<path d="M163.903 70.4643C164.208 70.1948 164.577 70.0073 164.975 69.9192C165.328 69.8436 165.687 69.8044 166.048 69.8022H171.93C172.346 69.7914 172.76 69.8782 173.137 70.0558C173.468 70.22 173.76 70.4527 173.994 70.7383C174.232 71.0318 174.423 71.3608 174.559 71.7134C174.701 72.0762 174.837 72.4512 174.967 72.8387L175.785 76.2515C176.788 74.264 178.325 72.596 180.225 71.4355C181.471 70.6801 182.814 70.0984 184.217 69.7066C185.987 69.2237 187.816 68.9939 189.65 69.0241C191.151 69.0095 192.648 69.1732 194.11 69.5117C195.393 69.8142 196.626 70.2982 197.772 70.949C198.88 71.5856 199.897 72.3695 200.795 73.2794C201.748 74.2526 202.608 75.3122 203.365 76.4446C203.977 75.5045 204.718 74.6548 205.566 73.9201C206.626 72.9796 207.797 72.1709 209.052 71.5116C210.488 70.7522 212.003 70.1528 213.57 69.7242C215.296 69.2495 217.078 69.0143 218.867 69.0251C221.551 68.9623 224.21 69.5484 226.618 70.7335C228.789 71.8427 230.675 73.4377 232.13 75.3944C233.647 77.4689 234.764 79.8091 235.42 82.2943C236.162 85.0408 236.529 87.8752 236.511 90.7201V116.232C236.569 117.032 236.341 117.826 235.868 118.474C235.605 118.746 235.284 118.955 234.93 119.086C234.576 119.217 234.197 119.268 233.82 119.234H224.823C224.015 119.32 223.202 119.12 222.525 118.669C222.28 118.362 222.098 118.01 221.991 117.632C221.884 117.254 221.854 116.858 221.902 116.469V90.7259C221.912 89.663 221.734 88.6066 221.376 87.6056C221.048 86.685 220.552 85.8333 219.913 85.0937C219.285 84.3756 218.507 83.8038 217.635 83.4185C216.696 83.0068 215.68 82.8007 214.655 82.8139C213.689 82.8098 212.734 83.0092 211.85 83.399C210.974 83.783 210.18 84.3315 209.51 85.0148C208.815 85.7334 208.266 86.5802 207.893 87.5081C207.481 88.5302 207.276 89.6239 207.29 90.7259V116.237C207.348 117.038 207.12 117.832 206.647 118.48C206.384 118.751 206.064 118.96 205.709 119.092C205.355 119.223 204.976 119.274 204.599 119.24H195.612C194.803 119.325 193.99 119.126 193.314 118.675C193.068 118.368 192.887 118.016 192.78 117.638C192.673 117.26 192.642 116.864 192.691 116.474V90.7317C192.7 89.672 192.535 88.6179 192.203 87.6115C191.901 86.6921 191.425 85.8393 190.801 85.0996C190.192 84.386 189.434 83.8143 188.581 83.4244C187.657 83.0103 186.653 82.8039 185.641 82.8198C184.697 82.8222 183.763 83.0145 182.895 83.3853C181.997 83.7627 181.178 84.3041 180.479 84.9816C179.745 85.6975 179.139 86.5339 178.688 87.4545C178.198 88.452 177.913 89.538 177.85 90.6479V116.354C177.848 116.808 177.763 117.257 177.598 117.679C177.455 118.086 177.189 118.44 176.838 118.692C176.543 118.881 176.221 119.025 175.884 119.12C175.546 119.202 175.199 119.242 174.851 119.237H166.049C165.633 119.303 165.208 119.272 164.806 119.147C164.404 119.022 164.036 118.806 163.731 118.516C163.426 118.226 163.191 117.87 163.046 117.474C162.901 117.079 162.849 116.656 162.893 116.237V72.6778C162.889 72.2042 163.003 71.7368 163.225 71.3185C163.433 70.9146 163.75 70.5768 164.14 70.3434L163.903 70.4643Z" fill="white"/>
<path d="M243.243 53.0967C243.202 52.6833 243.242 52.2659 243.363 51.8683C243.483 51.4707 243.681 51.1008 243.944 50.7799C244.555 50.2765 245.337 50.0316 246.126 50.0973H255.162C255.953 50.0601 256.732 50.3017 257.363 50.7799C257.668 51.0778 257.902 51.441 258.047 51.8423C258.192 52.2435 258.245 52.6723 258.2 53.0967V60.6927C258.193 61.0405 258.12 61.3838 257.986 61.7049C257.835 62.082 257.632 62.4359 257.382 62.756C257.122 63.0947 256.797 63.3792 256.428 63.5936C256.043 63.817 255.605 63.9315 255.16 63.9251H246.124C244.202 63.9251 243.241 62.8477 243.241 60.6927L243.243 53.0967ZM243.243 72.8054C243.224 72.031 243.471 71.2736 243.944 70.6602C244.212 70.3495 244.549 70.1064 244.928 69.9507C245.307 69.7949 245.717 69.731 246.126 69.7641H255.045C255.393 69.7716 255.737 69.8444 256.058 69.9786C256.429 70.1265 256.772 70.3372 257.071 70.6016C257.385 70.877 257.654 71.199 257.869 71.5563C258.093 71.9327 258.208 72.3643 258.2 72.8025V116.23C258.231 116.64 258.173 117.052 258.032 117.439C257.891 117.825 257.67 118.178 257.382 118.472C256.729 119.017 255.891 119.289 255.042 119.232H246.123C244.201 119.232 243.24 118.232 243.24 116.232L243.243 72.8054Z" fill="white"/>
<path d="M264.941 53.0577C264.916 52.3077 265.135 51.5699 265.564 50.9543C265.825 50.6478 266.156 50.4095 266.53 50.2601C266.904 50.1108 267.309 50.0549 267.709 50.0972H277.251C277.537 50.104 277.817 50.1771 278.069 50.3108C278.369 50.4645 278.639 50.6691 278.868 50.9153C279.125 51.1911 279.336 51.5069 279.491 51.8505C279.663 52.2294 279.75 52.6415 279.745 53.0577V116.23C279.775 116.642 279.715 117.055 279.571 117.442C279.426 117.829 279.2 118.181 278.907 118.472C278.31 118.993 277.536 119.265 276.745 119.232H267.709C267.317 119.274 266.921 119.227 266.55 119.096C266.179 118.964 265.842 118.751 265.564 118.472C265.103 117.819 264.883 117.027 264.941 116.23V53.0577Z" fill="white"/>
<path d="M317.974 103.108C318.28 102.874 318.632 102.708 319.006 102.62C319.256 102.564 319.51 102.532 319.766 102.523C320.184 102.518 320.597 102.611 320.973 102.795C321.442 103.083 321.831 103.485 322.102 103.965L326.465 110.547C326.603 110.772 326.727 111.006 326.834 111.248C326.934 111.442 326.994 111.653 327.01 111.871C327.02 112.14 326.976 112.409 326.879 112.661C326.782 112.912 326.634 113.141 326.445 113.334C326.072 113.707 325.661 114.039 325.219 114.326C323.058 115.822 320.707 117.021 318.227 117.89C315.643 118.795 312.922 119.249 310.184 119.234C307.902 119.241 305.629 118.94 303.427 118.339C301.304 117.761 299.267 116.902 297.371 115.787C295.499 114.681 293.772 113.347 292.23 111.814C290.68 110.28 289.344 108.544 288.257 106.653C287.152 104.724 286.295 102.663 285.707 100.519C284.486 96.0104 284.486 91.2586 285.707 86.7503C286.291 84.6045 287.148 82.5425 288.257 80.615C289.348 78.7328 290.684 77.004 292.23 75.4742C293.769 73.9439 295.496 72.6156 297.371 71.5211C301.263 69.264 305.686 68.0813 310.185 68.0937C312.844 68.0687 315.49 68.4494 318.034 69.2228C320.447 69.9818 322.727 71.1118 324.791 72.5723L324.674 72.4553C325.204 72.756 325.668 73.1599 326.04 73.643C326.389 74.1373 326.567 74.7326 326.546 75.3377C326.531 75.8528 326.369 76.3529 326.079 76.7789L322.612 82.6597C322.39 83.1913 322.025 83.651 321.557 83.9878C321.09 84.3247 320.538 84.5254 319.964 84.568C319.67 84.5563 319.381 84.497 319.107 84.3925C318.705 84.2421 318.325 84.0391 317.977 83.7889C316.826 83.0309 315.591 82.4092 314.296 81.9362C312.954 81.4508 311.537 81.2068 310.109 81.2156C308.548 81.1995 307.003 81.5393 305.592 82.2092C304.239 82.853 303.038 83.7755 302.067 84.9161C301.074 86.0922 300.302 87.438 299.788 88.8887C298.698 91.9828 298.698 95.3565 299.788 98.4505C300.293 99.8762 301.067 101.192 302.067 102.327C303.078 103.456 304.318 104.356 305.705 104.968C307.092 105.579 308.594 105.887 310.109 105.871C311.536 105.881 312.951 105.616 314.277 105.091C315.579 104.569 316.819 103.904 317.974 103.108Z" fill="white"/>
<path d="M379.397 115.454C379.399 115.888 379.32 116.318 379.163 116.722C378.787 117.439 378.143 117.978 377.371 118.222C377.038 118.293 376.699 118.332 376.359 118.339H368.685C368.234 118.355 367.784 118.282 367.361 118.124C367.042 117.995 366.76 117.788 366.543 117.52C366.319 117.232 366.142 116.91 366.018 116.566C365.874 116.189 365.725 115.781 365.57 115.339L365.063 113.584C364.314 114.327 363.514 115.017 362.668 115.648C361.74 116.343 360.749 116.949 359.708 117.459C358.598 118.003 357.437 118.434 356.241 118.744C354.988 119.071 353.699 119.235 352.404 119.232C350.109 119.241 347.823 118.94 345.608 118.337C341.366 117.184 337.504 114.934 334.41 111.812C331.295 108.677 329.053 104.784 327.905 100.517C327.301 98.2754 327 95.9635 327.009 93.6423C326.982 90.2749 327.623 86.9356 328.892 83.8167C330.162 80.6978 332.036 77.8609 334.407 75.4693C336.768 73.1092 339.575 71.2415 342.664 69.9746C345.753 68.7076 349.063 68.0667 352.401 68.0888C353.918 68.0772 355.43 68.2604 356.9 68.6339C358.227 68.9735 359.508 69.4704 360.717 70.1141C361.853 70.725 362.907 71.4787 363.853 72.3568C364.77 73.2082 365.593 74.1563 366.307 75.1846L367.436 71.6401C367.696 70.99 367.911 70.4641 368.079 70.0624C368.203 69.7321 368.388 69.428 368.624 69.1663C368.822 68.97 369.072 68.8346 369.345 68.7762C369.743 68.7017 370.148 68.669 370.553 68.6787H376.356C376.696 68.6849 377.035 68.7241 377.368 68.7957C377.753 68.8711 378.106 69.0615 378.381 69.3418C378.719 69.5954 378.988 69.931 379.161 70.3169C379.323 70.712 379.403 71.1361 379.395 71.5631L379.397 115.454ZM341.032 93.6423C341.019 95.2797 341.289 96.907 341.83 98.4524C342.325 99.8828 343.099 101.2 344.108 102.328C345.104 103.427 346.316 104.308 347.668 104.917C349.119 105.567 350.694 105.893 352.283 105.872C353.948 105.887 355.598 105.562 357.132 104.917C358.583 104.309 359.905 103.43 361.027 102.327C362.141 101.222 363.021 99.9037 363.617 98.4515C364.863 95.3861 364.863 91.955 363.617 88.8896C363.013 87.4136 362.134 86.0656 361.027 84.9171C359.917 83.7707 358.594 82.8513 357.132 82.2102C355.604 81.5408 353.952 81.2022 352.283 81.2165C350.69 81.1962 349.112 81.5359 347.668 82.2102C346.304 82.8534 345.09 83.7755 344.104 84.9171C343.102 86.0866 342.33 87.4342 341.826 88.8896C341.291 90.417 341.023 92.0249 341.032 93.6432V93.6423Z" fill="white"/>
<path d="M386.137 72.6495C386.126 72.2056 386.219 71.7654 386.41 71.3643C386.58 71.0155 386.826 70.7096 387.13 70.4692C387.433 70.2335 387.777 70.0554 388.144 69.9436C388.503 69.8296 388.877 69.7704 389.253 69.7681H395.134C395.42 69.7545 395.706 69.7994 395.974 69.8999C396.243 70.0005 396.487 70.1547 396.694 70.3532C397.111 70.7833 397.447 71.2846 397.687 71.8334C397.976 72.4767 398.217 73.1406 398.407 73.8196C398.611 74.5352 398.858 75.2377 399.148 75.923C399.928 75.0655 400.7 74.2204 401.465 73.3877C402.216 72.5699 403.045 71.8263 403.938 71.1674C404.83 70.5137 405.806 69.983 406.84 69.5896C407.994 69.1696 409.215 68.9651 410.443 68.9861C411.703 68.974 412.961 69.0781 414.201 69.2971C415.274 69.4967 416.325 69.8035 417.337 70.2128C418.362 70.6356 419.346 71.1506 420.278 71.7515C421.253 72.3742 422.311 73.1013 423.452 73.9328C423.914 74.1272 424.313 74.4438 424.608 74.8487C424.903 75.2535 425.083 75.7311 425.126 76.2301C425.083 76.939 424.855 77.6242 424.464 78.2173L420.92 84.2542C420.65 84.7089 420.269 85.0872 419.812 85.3529C419.356 85.6187 418.839 85.7631 418.31 85.7724C417.702 85.7526 417.104 85.6069 416.555 85.3444C415.565 84.3428 414.411 83.5182 413.142 82.9066C411.898 82.356 410.549 82.0835 409.189 82.108C408.281 82.0908 407.378 82.2361 406.521 82.537C405.763 82.8183 405.059 83.2265 404.437 83.7442C403.782 84.2971 403.193 84.9244 402.682 85.6135C402.137 86.3409 401.592 87.1457 401.047 88.0278V116.228C401.107 117.041 400.849 117.845 400.326 118.47C399.999 118.753 399.618 118.965 399.206 119.096C398.795 119.226 398.361 119.272 397.931 119.23H389.166C387.141 119.23 386.129 118.23 386.128 116.231L386.137 72.6495Z" fill="white"/>
<path d="M439.421 74.9867C439.799 74.2911 440.249 73.6374 440.765 73.0365C441.387 72.2992 442.1 71.6439 442.887 71.0863C443.766 70.4641 444.722 69.9599 445.731 69.5866C446.853 69.1741 448.041 68.9696 449.236 68.983C450.504 68.9765 451.772 69.0348 453.033 69.1575C454.123 69.2661 455.2 69.4747 456.251 69.7807C457.27 70.0817 458.255 70.4862 459.192 70.9878C460.233 71.5542 461.229 72.199 462.172 72.9166C462.534 73.1935 462.879 73.4924 463.205 73.8117C463.383 73.9746 463.526 74.1731 463.623 74.3945C463.72 74.6158 463.77 74.8551 463.769 75.0969C463.773 75.3694 463.706 75.6382 463.574 75.877L461.277 79.4215C461.155 79.6059 460.995 79.7611 460.806 79.8756C460.617 79.9901 460.405 80.0612 460.186 80.0836C459.972 80.0817 459.765 80.0059 459.601 79.8691C459.419 79.7267 459.199 79.5642 458.939 79.3815C457.491 78.3727 455.912 77.5666 454.245 76.9857C452.68 76.4721 451.042 76.2156 449.395 76.2261C448.111 76.2244 446.84 76.4764 445.653 76.9677C444.467 77.4591 443.39 78.1799 442.483 79.0889C441.527 80.0615 440.773 81.213 440.262 82.4774C439.684 83.9191 439.4 85.4616 439.426 87.0146V117.52C439.459 117.752 439.437 117.99 439.363 118.213C439.288 118.436 439.163 118.638 438.997 118.805C438.83 118.971 438.628 119.096 438.405 119.17C438.182 119.245 437.944 119.266 437.712 119.233H433.661C432.466 119.233 431.869 118.662 431.87 117.52V71.4812C431.86 71.2493 431.9 71.018 431.987 70.803C432.074 70.5879 432.207 70.3942 432.376 70.2351C432.702 69.9275 433.136 69.7596 433.584 69.767H437.635C437.875 69.7559 438.116 69.7952 438.34 69.8826C438.565 69.9699 438.769 70.1032 438.939 70.2741C439.097 70.4328 439.221 70.6213 439.305 70.8286C439.388 71.0358 439.43 71.2577 439.427 71.4812L439.421 74.9867Z" fill="white"/>
<path d="M501.35 107.002C501.589 106.79 501.843 106.594 502.11 106.417C502.262 106.3 502.437 106.218 502.624 106.176C502.811 106.134 503.005 106.134 503.193 106.174C503.38 106.215 503.556 106.297 503.709 106.413C503.862 106.529 503.987 106.677 504.076 106.846C504.597 107.547 505.019 108.118 505.344 108.56C505.669 109.002 505.935 109.353 506.143 109.612C506.35 109.898 506.506 110.105 506.61 110.235C506.735 110.383 506.84 110.547 506.922 110.722C507.001 110.9 507.041 111.092 507.038 111.287C507.022 111.618 506.906 111.938 506.706 112.202C506.378 112.637 505.992 113.023 505.557 113.351C504.451 114.227 503.286 115.027 502.072 115.746C500.857 116.465 499.587 117.084 498.273 117.599C496.918 118.127 495.517 118.532 494.087 118.807C490.315 119.511 486.431 119.345 482.733 118.319C480.597 117.718 478.548 116.84 476.638 115.71C472.826 113.456 469.634 110.291 467.348 106.498C466.201 104.592 465.311 102.542 464.7 100.403C464.073 98.2049 463.758 95.9298 463.766 93.6443C463.753 89.1278 464.914 84.6853 467.135 80.7526C469.297 76.942 472.427 73.7707 476.21 71.5603C478.152 70.4298 480.234 69.559 482.403 68.9704C484.695 68.3509 487.059 68.0429 489.433 68.0548C491.386 68.0556 493.333 68.2777 495.236 68.7169C497.145 69.1546 499 69.8015 500.767 70.6457C502.539 71.4933 504.206 72.5454 505.733 73.7806C507.285 75.0346 508.678 76.4734 509.881 78.0651C511.573 80.3608 512.827 82.9488 513.581 85.6992C514.428 88.9128 514.809 92.2316 514.711 95.5535C514.711 96.7744 514.139 97.3845 512.997 97.3838H471.945C472.372 99.4268 473.157 101.378 474.263 103.149C475.339 104.884 476.68 106.441 478.235 107.765C479.772 109.071 481.516 110.111 483.395 110.841C485.269 111.577 487.264 111.953 489.276 111.951C490.579 111.964 491.88 111.827 493.151 111.541C494.239 111.292 495.297 110.927 496.307 110.451C497.23 110.012 498.111 109.489 498.94 108.891C499.744 108.306 500.524 107.702 501.28 107.079L501.35 107.002ZM480.006 78.1792C478.014 79.5221 476.285 81.2185 474.904 83.1844C473.484 85.1744 472.489 87.435 471.979 89.8258H507.189C506.929 87.7487 506.247 85.7469 505.183 83.9441C504.156 82.2068 502.816 80.675 501.23 79.4264C499.62 78.166 497.81 77.1851 495.875 76.5245C493.889 75.8369 491.802 75.4881 489.7 75.4928C488.01 75.4934 486.327 75.716 484.695 76.1549C483.042 76.5994 481.463 77.2817 480.006 78.1802V78.1792Z" fill="white"/>
<path d="M526.031 69.5338C526.524 70.8339 527.16 72.4828 527.94 74.4805C528.72 76.4782 529.565 78.64 530.475 80.9659C531.385 83.2899 532.328 85.6854 533.303 88.1524C534.278 90.6194 535.213 92.9694 536.108 95.2024C537.003 97.4353 537.822 99.4672 538.562 101.298C539.302 103.128 539.893 104.576 540.335 105.641C540.749 104.577 541.32 103.129 542.048 101.298C542.775 99.4665 543.574 97.4282 544.444 95.1829C545.314 92.9369 546.229 90.5804 547.19 88.1134C548.15 85.6464 549.079 83.2512 549.974 80.9279C550.87 78.6039 551.701 76.4421 552.468 74.4425C553.234 72.4429 553.864 70.794 554.357 69.4958C554.518 69.0817 554.787 68.7184 555.137 68.4436C555.509 68.1728 555.962 68.0354 556.422 68.0536H560.746C561.888 68.0536 562.459 68.5086 562.46 69.4187C562.457 69.5107 562.444 69.602 562.42 69.6908C562.388 69.8102 562.349 69.9275 562.303 70.0418C562.249 70.18 562.21 70.3235 562.186 70.4699L553.033 93.0221L537.453 131.192V131.114C537.32 131.551 537.044 131.93 536.67 132.191C536.296 132.453 535.845 132.581 535.389 132.556H531.533C530.287 132.556 529.664 132.075 529.664 131.114C529.665 130.924 529.691 130.734 529.742 130.55C529.779 130.429 529.805 130.305 529.82 130.179L536.325 114.48L518.251 70.503C518.226 70.425 518.2 70.3344 518.173 70.23C518.116 69.9741 518.09 69.7122 518.095 69.4499C518.095 68.5399 518.692 68.0848 519.887 68.0848H523.976C524.436 68.0666 524.889 68.204 525.261 68.4748C525.608 68.753 525.873 69.1186 526.031 69.5338Z" fill="white"/>
</svg>
