<svg width="563" height="133" viewBox="0 0 563 133" fill="none" xmlns="http://www.w3.org/2000/svg">
<path d="M42.9255 119.126H29.8477L65.6186 0H78.6964L42.9255 119.126Z" fill="#00487A"/>
<path d="M56.8176 7.83525L54.272 5.28967L0 59.5622L31.7504 91.3127L56.8176 7.83525Z" fill="#0A1926"/>
<path d="M76.7937 27.8118L51.7266 111.289L54.2722 113.835L108.545 59.5622L76.7937 27.8118Z" fill="#0A1926"/>
<path d="M156.145 115.348C156.147 115.781 156.068 116.21 155.912 116.614C155.536 117.331 154.892 117.87 154.121 118.114C153.788 118.185 153.449 118.224 153.108 118.23H145.435C144.984 118.247 144.534 118.174 144.111 118.017C143.792 117.888 143.51 117.68 143.293 117.413C143.069 117.124 142.891 116.802 142.767 116.459C142.622 116.082 142.473 115.673 142.319 115.232L141.813 113.479C141.063 114.221 140.263 114.91 139.417 115.541C138.489 116.236 137.498 116.842 136.457 117.352C135.348 117.896 134.186 118.327 132.991 118.638C131.738 118.965 130.449 119.129 129.154 119.126C126.858 119.135 124.572 118.834 122.357 118.23C118.116 117.078 114.254 114.827 111.159 111.706C108.045 108.571 105.803 104.677 104.654 100.41C104.051 98.1688 103.75 95.8567 103.759 93.5354C103.733 90.1684 104.374 86.8296 105.644 83.7112C106.914 80.5928 108.788 77.7564 111.159 75.3653C113.521 73.0053 116.328 71.1378 119.417 69.8709C122.506 68.604 125.815 67.9631 129.154 67.9853C130.671 67.973 132.183 68.1554 133.653 68.528C134.98 68.8674 136.261 69.3642 137.47 70.0078C138.606 70.6178 139.66 71.3704 140.606 72.2473C141.523 73.0968 142.345 74.0429 143.059 75.0691L144.189 71.525C144.448 70.876 144.662 70.3502 144.832 69.9476C144.955 69.6175 145.139 69.3135 145.374 69.0516C145.572 68.8555 145.822 68.7202 146.095 68.662C146.493 68.5876 146.898 68.555 147.303 68.5649H153.106C153.446 68.5709 153.786 68.61 154.119 68.6816C154.504 68.757 154.857 68.9473 155.131 69.2275C155.469 69.4808 155.737 69.8158 155.91 70.201C156.072 70.5968 156.152 71.0215 156.144 71.4491L156.145 115.348ZM117.78 93.5333C117.767 95.1707 118.037 96.798 118.578 98.3433C119.073 99.7737 119.848 101.091 120.857 102.219C121.855 103.318 123.068 104.2 124.422 104.809C125.873 105.459 127.448 105.784 129.037 105.764C130.702 105.778 132.352 105.454 133.886 104.809C135.338 104.201 136.66 103.322 137.782 102.219C138.895 101.113 139.776 99.7953 140.372 98.3433C141.618 95.2776 141.618 91.8465 140.372 88.7808C139.768 87.3047 138.888 85.9566 137.782 84.808C136.671 83.6614 135.348 82.7421 133.886 82.1013C132.358 81.4321 130.706 81.0937 129.037 81.1082C127.444 81.0877 125.866 81.4272 124.422 82.1013C123.057 82.7443 121.843 83.6664 120.857 84.808C119.855 85.9774 119.082 87.3251 118.578 88.7808C118.042 90.3083 117.772 91.9165 117.779 93.5354L117.78 93.5333Z" fill="#0A1926"/>
<path d="M163.898 70.3556C164.204 70.0872 164.572 69.9005 164.97 69.813C165.322 69.7373 165.681 69.6981 166.041 69.6957H171.922C172.339 69.6849 172.752 69.7717 173.129 69.9491C173.46 70.1128 173.752 70.3447 173.986 70.6296C174.224 70.9221 174.415 71.25 174.551 71.6015C174.693 71.9633 174.83 72.3384 174.96 72.727L175.779 76.1457C176.781 74.158 178.319 72.49 180.219 71.3297C181.464 70.5743 182.808 69.9926 184.211 69.6008C185.981 69.1189 187.81 68.8902 189.644 68.9214C191.145 68.9062 192.642 69.0692 194.104 69.407C195.387 69.7096 196.62 70.1937 197.766 70.8445C198.872 71.4814 199.888 72.2653 200.784 73.1747C201.737 74.1479 202.597 75.2075 203.354 76.3399C203.967 75.3999 204.708 74.5501 205.555 73.8155C206.616 72.8751 207.787 72.0665 209.041 71.4073C210.478 70.6481 211.993 70.0488 213.56 69.6203C215.285 69.1456 217.067 68.9105 218.857 68.9214C221.54 68.859 224.2 69.4451 226.608 70.6302C228.779 71.7396 230.665 73.3347 232.119 75.2916C233.637 77.366 234.754 79.7062 235.41 82.1913C236.153 84.938 236.519 87.7725 236.501 90.6176V116.13C236.559 116.929 236.331 117.722 235.859 118.369C235.596 118.64 235.276 118.849 234.922 118.98C234.568 119.112 234.19 119.162 233.814 119.129H224.817C223.7 119.129 222.934 118.941 222.519 118.565C222.103 118.188 221.896 117.455 221.895 116.364V90.6143C221.905 89.5527 221.727 88.4977 221.369 87.4979C221.042 86.5775 220.547 85.7258 219.909 84.986C219.281 84.2681 218.503 83.6965 217.63 83.3114C216.691 82.9 215.675 82.694 214.65 82.7074C213.685 82.703 212.729 82.9021 211.846 83.2918C210.971 83.6762 210.177 84.2248 209.509 84.9078C208.814 85.6263 208.265 86.473 207.892 87.4008C207.48 88.4215 207.275 89.5138 207.288 90.6143V116.126C207.346 116.925 207.118 117.719 206.646 118.366C206.383 118.637 206.063 118.846 205.709 118.977C205.355 119.108 204.977 119.159 204.601 119.126H195.603C194.486 119.126 193.72 118.938 193.305 118.561C192.89 118.185 192.683 117.451 192.682 116.36V90.6143C192.691 89.5558 192.526 88.5031 192.194 87.4979C191.892 86.5785 191.415 85.7258 190.792 84.986C190.182 84.2727 189.424 83.7012 188.571 83.3114C187.647 82.8974 186.643 82.6912 185.63 82.7074C184.686 82.7096 183.752 82.9019 182.884 83.2728C181.987 83.6503 181.168 84.1917 180.469 84.8693C179.735 85.5853 179.13 86.4219 178.679 87.3427C178.188 88.3403 177.903 89.4263 177.841 90.5362V116.244C177.839 116.697 177.753 117.146 177.588 117.568C177.444 117.975 177.179 118.329 176.828 118.581C176.533 118.77 176.211 118.914 175.874 119.009C175.537 119.091 175.19 119.13 174.843 119.126H166.041C164.924 119.126 164.119 118.853 163.626 118.308C163.111 117.702 162.846 116.922 162.886 116.127V72.5696C162.882 72.0968 162.996 71.6305 163.217 71.213C163.426 70.8105 163.743 70.4742 164.132 70.2416L163.898 70.3556Z" fill="#0A1926"/>
<path d="M243.242 52.9876C243.242 51.8972 243.476 51.1248 243.943 50.6704C244.554 50.1672 245.336 49.9224 246.125 49.9883H255.161C255.952 49.951 256.731 50.1924 257.362 50.6704C257.92 51.1248 258.199 51.8972 258.199 52.9876V60.5847C258.191 60.9326 258.119 61.276 257.985 61.5973C257.834 61.9745 257.631 62.3286 257.381 62.6489C257.121 62.9874 256.797 63.2718 256.427 63.4862C256.043 63.709 255.605 63.8234 255.161 63.8172H246.125C244.203 63.8172 243.242 62.7397 243.242 60.5847V52.9876ZM243.242 72.6966C243.223 71.9234 243.471 71.1672 243.943 70.5548C244.211 70.2439 244.547 70.0007 244.927 69.8449C245.306 69.6891 245.716 69.6252 246.125 69.6583H255.045C255.393 69.6668 255.736 69.7404 256.057 69.8754C256.428 70.0233 256.771 70.234 257.07 70.4983C257.384 70.7738 257.653 71.0959 257.868 71.4534C258.093 71.8305 258.207 72.2627 258.199 72.7015V116.131C258.229 116.541 258.172 116.953 258.031 117.339C257.89 117.725 257.668 118.077 257.381 118.371C256.729 118.915 255.892 119.187 255.044 119.131H246.125C244.203 119.131 243.242 118.131 243.242 116.131V72.6966Z" fill="#0A1926"/>
<path d="M264.939 52.9491C264.915 52.1991 265.133 51.4613 265.562 50.8457C265.978 50.2745 266.692 49.9889 267.705 49.9889H277.247C277.533 49.9958 277.813 50.069 278.066 50.2027C278.365 50.3564 278.635 50.5607 278.864 50.8067C279.121 51.0824 279.332 51.3982 279.487 51.7416C279.659 52.1207 279.746 52.5329 279.74 52.9491V116.126C279.77 116.538 279.71 116.951 279.566 117.338C279.421 117.724 279.195 118.075 278.903 118.366C278.306 118.887 277.532 119.159 276.741 119.126H267.704C266.691 119.126 265.977 118.872 265.562 118.366C265.102 117.714 264.882 116.923 264.938 116.126L264.939 52.9491Z" fill="#0A1926"/>
<path d="M317.974 103C318.28 102.767 318.631 102.6 319.005 102.512C319.255 102.456 319.509 102.424 319.765 102.415C320.183 102.41 320.597 102.502 320.972 102.686C321.442 102.974 321.83 103.376 322.102 103.855L326.464 110.437C326.603 110.662 326.726 110.897 326.833 111.138C326.933 111.332 326.993 111.544 327.009 111.761C327.019 112.03 326.974 112.299 326.877 112.55C326.78 112.801 326.633 113.03 326.444 113.222C326.071 113.595 325.66 113.928 325.217 114.215C323.057 115.711 320.706 116.911 318.227 117.78C315.643 118.685 312.922 119.14 310.184 119.124C307.901 119.131 305.628 118.83 303.426 118.228C301.303 117.65 299.266 116.793 297.369 115.678C295.497 114.572 293.77 113.238 292.228 111.705C290.678 110.171 289.342 108.435 288.255 106.544C287.15 104.614 286.293 102.553 285.704 100.409C284.484 95.9006 284.484 91.1488 285.704 86.6404C286.289 84.4947 287.146 82.4328 288.255 80.5052C289.346 78.6229 290.682 76.8941 292.228 75.3642C293.767 73.8338 295.495 72.5053 297.369 71.4109C301.262 69.1539 305.684 67.9711 310.184 67.9836C312.842 67.9586 315.489 68.3394 318.032 69.1128C320.445 69.8719 322.725 71.002 324.79 72.4626L324.673 72.3459C325.202 72.6468 325.666 73.0505 326.036 73.5332C326.386 74.0274 326.564 74.6225 326.543 75.2274C326.528 75.7426 326.365 76.2427 326.075 76.6687L322.609 82.5499C321.882 83.8223 320.999 84.4584 319.96 84.4584C319.667 84.4468 319.378 84.3876 319.103 84.2831C318.702 84.1329 318.322 83.93 317.974 83.6797C316.823 82.9224 315.587 82.3012 314.293 81.8287C312.951 81.3435 311.533 81.0997 310.106 81.1086C308.544 81.0923 306.999 81.4319 305.588 82.1017C304.234 82.7452 303.032 83.6677 302.06 84.8084C301.068 85.9845 300.295 87.3304 299.781 88.7812C298.691 91.8754 298.691 95.2495 299.781 98.3437C300.287 99.7693 301.06 101.085 302.06 102.219C303.071 103.349 304.312 104.249 305.699 104.86C307.086 105.472 308.588 105.78 310.104 105.764C311.53 105.774 312.945 105.51 314.271 104.985C315.576 104.464 316.818 103.798 317.974 103Z" fill="#0A1926"/>
<path d="M379.398 115.348C379.4 115.781 379.321 116.21 379.165 116.614C378.79 117.331 378.146 117.87 377.374 118.114C377.041 118.185 376.702 118.224 376.362 118.23H368.689C368.238 118.247 367.788 118.174 367.364 118.017C367.045 117.888 366.764 117.68 366.546 117.413C366.322 117.124 366.145 116.802 366.02 116.459C365.876 116.082 365.726 115.673 365.572 115.232L365.065 113.479C364.316 114.221 363.516 114.91 362.67 115.541C361.742 116.236 360.751 116.842 359.71 117.352C358.601 117.896 357.439 118.327 356.243 118.638C354.991 118.965 353.701 119.129 352.407 119.126C350.111 119.135 347.825 118.834 345.61 118.23C341.369 117.078 337.506 114.827 334.412 111.706C331.298 108.571 329.056 104.677 327.907 100.41C327.304 98.1688 327.002 95.8567 327.011 93.5354C326.986 90.1684 327.627 86.8296 328.897 83.7112C330.167 80.5928 332.041 77.7564 334.412 75.3654C336.774 73.0053 339.581 71.1377 342.67 69.8708C345.759 68.604 349.069 67.9631 352.407 67.9853C353.924 67.973 355.436 68.1554 356.907 68.528C358.233 68.8674 359.515 69.3642 360.724 70.0078C361.86 70.6178 362.914 71.3704 363.86 72.2473C364.777 73.0969 365.599 74.043 366.313 75.0691L367.443 71.525C367.702 70.876 367.916 70.3502 368.086 69.9476C368.209 69.6175 368.393 69.3135 368.628 69.0516C368.826 68.8555 369.076 68.7202 369.349 68.662C369.747 68.5876 370.152 68.555 370.557 68.5649H376.36C376.701 68.5709 377.04 68.61 377.373 68.6816C377.758 68.7569 378.111 68.9472 378.385 69.2275C378.723 69.4808 378.991 69.8158 379.164 70.201C379.326 70.5967 379.406 71.0215 379.398 71.4491L379.398 115.348ZM341.033 93.5333C341.02 95.1707 341.291 96.7979 341.832 98.3433C342.327 99.7737 343.101 101.091 344.111 102.219C345.108 103.318 346.322 104.2 347.675 104.809C349.126 105.459 350.701 105.784 352.291 105.764C353.955 105.778 355.605 105.454 357.14 104.809C358.591 104.201 359.913 103.322 361.035 102.219C362.149 101.113 363.03 99.7954 363.625 98.3433C364.872 95.2777 364.872 91.8464 363.625 88.7808C363.021 87.3046 362.142 85.9565 361.035 84.808C359.925 83.6615 358.602 82.7422 357.14 82.1013C355.612 81.4321 353.959 81.0937 352.291 81.1082C350.697 81.0877 349.119 81.4271 347.675 82.1013C346.311 82.7444 345.097 83.6665 344.111 84.808C343.109 85.9774 342.335 87.3252 341.832 88.7808C341.295 90.3083 341.025 91.9165 341.032 93.5354L341.033 93.5333Z" fill="#0A1926"/>
<path d="M386.139 72.5408C386.128 72.097 386.22 71.6567 386.41 71.2553C386.58 70.9066 386.826 70.6005 387.13 70.3599C387.433 70.1242 387.776 69.946 388.143 69.8341C388.502 69.72 388.876 69.6609 389.253 69.6588H395.134C395.42 69.6454 395.706 69.6903 395.974 69.7908C396.241 69.8912 396.486 70.0452 396.692 70.2433C397.109 70.6732 397.446 71.1744 397.685 71.7231C397.975 72.3665 398.215 73.0305 398.406 73.7097C398.609 74.4255 398.857 75.1281 399.146 75.8136C399.925 74.9565 400.698 74.1126 401.464 73.2816C402.215 72.4637 403.043 71.7201 403.937 71.061C404.829 70.4074 405.805 69.8769 406.839 69.4836C407.993 69.0636 409.214 68.859 410.442 68.8801C411.702 68.8679 412.96 68.972 414.201 69.1911C415.274 69.3905 416.324 69.6969 417.336 70.106C418.361 70.5289 419.345 71.044 420.277 71.6449C421.251 72.2679 422.309 72.9951 423.452 73.8264C424.568 74.4758 425.126 75.2416 425.126 76.124C425.083 76.8327 424.855 77.5176 424.464 78.1106L420.92 84.1481C420.65 84.603 420.269 84.9815 419.812 85.2475C419.356 85.5134 418.838 85.658 418.31 85.6675C417.702 85.6471 417.106 85.5012 416.557 85.2389C415.568 84.2391 414.415 83.416 413.149 82.8051C411.905 82.2544 410.556 81.9817 409.196 82.0063C408.288 81.9889 407.384 82.1341 406.527 82.435C405.769 82.7163 405.065 83.1246 404.444 83.6424C403.789 84.1954 403.201 84.8228 402.691 85.5118C402.145 86.239 401.6 87.0439 401.055 87.9266V116.127C401.115 116.939 400.856 117.742 400.335 118.367C399.853 118.873 399.055 119.126 397.939 119.126H389.175C387.149 119.126 386.136 118.127 386.136 116.127L386.139 72.5408Z" fill="#0A1926"/>
<path d="M439.425 74.878C439.803 74.1834 440.253 73.5306 440.768 72.9305C441.391 72.1943 442.104 71.54 442.891 70.9834C443.769 70.3612 444.725 69.8569 445.735 69.4836C446.857 69.0711 448.045 68.8666 449.24 68.8801C450.508 68.8738 451.776 68.9323 453.039 69.0554C454.127 69.1643 455.202 69.373 456.252 69.6789C457.271 69.9799 458.256 70.3843 459.193 70.8858C460.234 71.4521 461.23 72.0968 462.172 72.8144C462.534 73.0914 462.878 73.3904 463.203 73.7097C463.382 73.8726 463.525 74.0712 463.622 74.2926C463.719 74.5141 463.769 74.7534 463.768 74.9953C463.772 75.2673 463.705 75.5355 463.574 75.774L461.276 79.3186C461.155 79.503 460.994 79.6581 460.805 79.7726C460.617 79.8871 460.405 79.9582 460.185 79.9806C459.972 79.9787 459.765 79.9032 459.601 79.7668C459.42 79.6243 459.199 79.4614 458.939 79.2784C457.491 78.2696 455.912 77.4635 454.245 76.8826C452.68 76.369 451.043 76.1125 449.396 76.1229C448.112 76.1211 446.84 76.3731 445.653 76.8644C444.467 77.3558 443.389 78.0767 442.482 78.9859C441.527 79.9586 440.772 81.1102 440.262 82.3747C439.684 83.8166 439.399 85.3592 439.425 86.9124V117.409C439.425 118.552 438.854 119.123 437.711 119.123H433.661C432.467 119.123 431.87 118.552 431.87 117.409V71.3725C431.859 71.1403 431.899 70.9086 431.987 70.6931C432.074 70.4777 432.207 70.2837 432.376 70.1244C432.702 69.817 433.136 69.6491 433.584 69.6567H437.634C437.875 69.6454 438.116 69.6847 438.341 69.772C438.565 69.8593 438.769 69.9927 438.939 70.1635C439.097 70.3221 439.221 70.5106 439.305 70.7178C439.389 70.925 439.431 71.1468 439.428 71.3704L439.425 74.878Z" fill="#0A1926"/>
<path d="M501.356 106.895C501.595 106.683 501.849 106.488 502.116 106.311C502.268 106.194 502.443 106.112 502.631 106.07C502.818 106.028 503.012 106.027 503.199 106.068C503.386 106.109 503.562 106.19 503.715 106.306C503.868 106.422 503.993 106.57 504.083 106.74C504.602 107.44 505.024 108.012 505.348 108.453C505.673 108.895 505.939 109.246 506.147 109.505C506.354 109.791 506.51 109.999 506.614 110.128C506.739 110.276 506.844 110.441 506.926 110.616C507.006 110.794 507.046 110.987 507.043 111.181C507.027 111.513 506.912 111.832 506.712 112.097C506.384 112.531 505.998 112.918 505.563 113.246C504.457 114.122 503.292 114.922 502.077 115.641C500.863 116.359 499.593 116.977 498.279 117.491C496.923 118.02 495.521 118.424 494.092 118.699C490.32 119.403 486.436 119.236 482.738 118.211C480.601 117.609 478.552 116.732 476.642 115.601C472.829 113.347 469.636 110.181 467.35 106.388C466.202 104.482 465.312 102.432 464.701 100.292C464.074 98.0947 463.759 95.8197 463.767 93.5343C463.754 89.0175 464.915 84.5749 467.136 80.642C469.298 76.8316 472.429 73.6604 476.211 71.45C478.153 70.3195 480.235 69.4487 482.404 68.86C484.696 68.2404 487.061 67.9325 489.435 67.9446C491.388 67.9453 493.335 68.1674 495.238 68.6066C497.147 69.0443 499.002 69.6911 500.769 70.5352C502.541 71.3831 504.208 72.4353 505.735 73.6706C507.288 74.9253 508.681 76.3649 509.884 77.9575C511.576 80.2532 512.83 82.8411 513.584 85.5915C514.431 88.8052 514.812 92.124 514.714 95.446C514.714 96.6666 514.143 97.2768 513 97.2764H471.946C472.374 99.3193 473.158 101.271 474.264 103.041C475.341 104.776 476.681 106.334 478.236 107.657C479.773 108.963 481.517 110.003 483.397 110.734C485.271 111.469 487.266 111.846 489.278 111.843C490.582 111.857 491.882 111.72 493.154 111.434C494.242 111.185 495.3 110.82 496.309 110.344C497.231 109.905 498.111 109.383 498.939 108.786C499.743 108.202 500.522 107.598 501.275 106.975L501.356 106.895ZM480.011 78.072C478.02 79.4149 476.291 81.1112 474.911 83.0769C473.492 85.0672 472.498 87.3278 471.99 89.7184H507.201C506.941 87.6411 506.258 85.6392 505.193 83.8366C504.166 82.0991 502.826 80.5672 501.24 79.3185C499.63 78.058 497.82 77.077 495.885 76.4164C493.899 75.7291 491.812 75.3805 489.71 75.3854C488.02 75.3859 486.338 75.6085 484.705 76.0474C483.051 76.4912 481.47 77.1732 480.011 78.072Z" fill="#0A1926"/>
<path d="M526.037 69.4254C526.53 70.7238 527.166 72.3727 527.946 74.3722C528.725 76.3717 529.569 78.5334 530.477 80.8574C531.386 83.1817 532.326 85.5772 533.299 88.0437C534.271 90.5102 535.206 92.8602 536.103 95.0938C536.998 97.327 537.816 99.3589 538.557 101.189C539.297 103.02 539.888 104.467 540.329 105.531C540.744 104.466 541.315 103.019 542.043 101.189C542.77 99.3596 543.569 97.3212 544.438 95.0743C545.306 92.8284 546.222 90.4719 547.185 88.0046C548.148 85.5374 549.076 83.142 549.969 80.8183C550.865 78.4943 551.696 76.3326 552.462 74.3331C553.228 72.3336 553.858 70.6847 554.351 69.3863C554.512 68.9723 554.781 68.6089 555.13 68.3341C555.503 68.0633 555.956 67.9261 556.416 67.9445H560.739C561.881 67.9445 562.453 68.399 562.453 69.3082C562.451 69.3998 562.438 69.4909 562.414 69.5795C562.383 69.6987 562.343 69.8158 562.297 69.9301C562.243 70.0682 562.204 70.2117 562.18 70.3582L553.026 92.9107L537.446 131.082V131.004C537.313 131.44 537.037 131.819 536.663 132.081C536.29 132.342 535.839 132.47 535.384 132.445H531.528C530.281 132.445 529.658 131.965 529.658 131.004C529.659 130.813 529.685 130.624 529.736 130.44C529.773 130.319 529.8 130.195 529.815 130.07L536.319 114.373L518.246 70.3978C518.22 70.3202 518.191 70.2291 518.168 70.1265C518.111 69.871 518.085 69.6096 518.091 69.3478C518.091 68.439 518.687 67.9845 519.881 67.9841H523.971C524.431 67.966 524.884 68.1032 525.256 68.3737C525.605 68.6485 525.875 69.0116 526.037 69.4254Z" fill="#0A1926"/>
</svg>
