<svg width="234" height="234" viewBox="0 0 234 234" fill="none" xmlns="http://www.w3.org/2000/svg">
<path d="M70.7488 126.425H56.8955L94.7849 0.248657H108.638L70.7488 126.425Z" fill="#00487A"/>
<path d="M85.4616 8.54843L82.7657 5.85254L25.2812 63.337L58.9108 96.9667L85.4616 8.54843Z" fill="#0A1926"/>
<path d="M106.621 29.7074L80.0703 118.126L82.7662 120.822L140.251 63.337L106.621 29.7074Z" fill="#0A1926"/>
<path d="M38.1997 174.294C38.2011 174.607 38.1436 174.919 38.0304 175.211C37.758 175.731 37.2909 176.121 36.7314 176.297C36.4899 176.348 36.244 176.377 35.9971 176.381H30.4338C30.1068 176.393 29.7807 176.34 29.4739 176.226C29.2424 176.133 29.0383 175.982 28.8808 175.788C28.7186 175.579 28.5904 175.346 28.501 175.097C28.3972 174.824 28.2886 174.527 28.1753 174.207L27.808 172.936C27.2647 173.475 26.6845 173.975 26.0715 174.433C25.3987 174.937 24.6802 175.377 23.9253 175.746C23.121 176.141 22.2788 176.453 21.4117 176.678C20.5036 176.915 19.5687 177.034 18.6301 177.031C16.9657 177.037 15.3081 176.818 13.7023 176.38C10.6274 175.545 7.8271 173.913 5.58371 171.65C3.32597 169.378 1.70035 166.555 0.867508 163.461C0.42935 161.836 0.210377 160.16 0.216353 158.477C0.197832 156.036 0.662328 153.615 1.58312 151.355C2.5039 149.094 3.86278 147.037 5.58152 145.304C7.29367 143.593 9.32854 142.238 11.5681 141.32C13.8077 140.401 16.2074 139.937 18.6279 139.953C19.7275 139.944 20.8235 140.077 21.8893 140.348C22.8513 140.594 23.7803 140.954 24.6568 141.421C25.4807 141.863 26.2448 142.408 26.9305 143.044C27.5956 143.66 28.1919 144.347 28.7093 145.092L29.5282 142.522C29.7163 142.052 29.8717 141.67 29.9943 141.378C30.0839 141.138 30.2179 140.917 30.3894 140.727C30.5329 140.585 30.7143 140.487 30.912 140.445C31.2007 140.391 31.4941 140.367 31.7878 140.374H35.9955C36.2424 140.379 36.4883 140.407 36.7297 140.459C37.0088 140.514 37.2648 140.652 37.4639 140.855C37.7088 141.038 37.9032 141.281 38.0288 141.56C38.1462 141.847 38.2039 142.154 38.1982 142.464L38.1997 174.294ZM10.3846 158.48C10.3752 159.667 10.571 160.847 10.9635 161.967C11.322 163.004 11.8835 163.96 12.6154 164.777C13.3387 165.574 14.2183 166.213 15.1995 166.655C16.2515 167.126 17.3935 167.362 18.546 167.347C19.7528 167.358 20.9492 167.123 22.0618 166.655C23.1131 166.214 24.0707 165.577 24.8837 164.777C25.6911 163.976 26.3296 163.02 26.7612 161.967C27.6649 159.745 27.6649 157.257 26.7612 155.035C26.3231 153.964 25.686 152.987 24.8837 152.154C24.0793 151.323 23.1208 150.656 22.0618 150.191C20.9538 149.706 19.7556 149.461 18.546 149.471C17.3905 149.456 16.2466 149.703 15.1995 150.191C14.2104 150.658 13.3301 151.326 12.6154 152.154C11.8888 153.002 11.3283 153.979 10.9635 155.035C10.5748 156.142 10.379 157.307 10.3846 158.481V158.48Z" fill="#0A1926"/>
<path d="M43.8208 141.676C44.042 141.48 44.3091 141.344 44.5973 141.28C44.8525 141.225 45.1127 141.197 45.3738 141.195H49.638C49.9401 141.187 50.2398 141.25 50.5133 141.379C50.753 141.497 50.9648 141.666 51.1346 141.872C51.3072 142.084 51.4455 142.322 51.5443 142.578C51.6477 142.841 51.7467 143.112 51.8411 143.392L52.4342 145.869C53.1612 144.428 54.276 143.219 55.6532 142.378C56.5565 141.83 57.5303 141.409 58.5477 141.125C59.8309 140.775 61.1571 140.609 62.4868 140.632C63.5749 140.621 64.6603 140.739 65.7205 140.984C66.6504 141.204 67.5443 141.554 68.3751 142.026C69.1774 142.488 69.9137 143.057 70.5637 143.716C71.2545 144.422 71.8783 145.19 72.4271 146.011C72.8709 145.329 73.4079 144.713 74.0225 144.18C74.7915 143.498 75.64 142.912 76.5496 142.434C77.5908 141.884 78.6892 141.45 79.8251 141.139C81.0761 140.795 82.3685 140.624 83.666 140.632C85.6116 140.587 87.5394 141.012 89.2856 141.871C90.8598 142.675 92.2273 143.832 93.2817 145.251C94.3827 146.754 95.1926 148.451 95.6694 150.253C96.2073 152.244 96.4732 154.299 96.46 156.361V174.858C96.5014 175.437 96.3364 176.012 95.9939 176.481C95.8033 176.678 95.5713 176.829 95.3149 176.924C95.0584 177.019 94.7839 177.056 94.5113 177.032H87.9882C87.4021 177.094 86.8128 176.949 86.3222 176.623C86.1444 176.4 86.0129 176.145 85.9353 175.871C85.8576 175.597 85.8355 175.31 85.8702 175.027V156.36C85.8773 155.591 85.7487 154.826 85.4903 154.101C85.2528 153.433 84.8936 152.816 84.431 152.28C83.9757 151.759 83.4119 151.345 82.7793 151.065C82.0986 150.767 81.3621 150.617 80.619 150.627C79.919 150.624 79.2261 150.768 78.5856 151.051C77.9512 151.33 77.3761 151.727 76.8915 152.223C76.3875 152.744 75.9894 153.357 75.7194 154.03C75.4211 154.77 75.2724 155.562 75.282 156.36V174.857C75.3235 175.436 75.1583 176.011 74.8158 176.48C74.6253 176.676 74.3933 176.828 74.1369 176.923C73.8804 177.018 73.6059 177.055 73.3334 177.031H66.8102C66.2241 177.093 65.6348 176.948 65.1442 176.622C64.9665 176.399 64.835 176.144 64.7575 175.87C64.6799 175.596 64.658 175.309 64.6927 175.026V156.359C64.6993 155.592 64.5799 154.828 64.3395 154.1C64.1205 153.433 63.7754 152.815 63.3231 152.278C62.8815 151.761 62.3321 151.347 61.7135 151.064C61.0435 150.764 60.3157 150.614 59.5815 150.626C58.8971 150.628 58.22 150.767 57.5905 151.036C56.9399 151.309 56.346 151.702 55.8394 152.193C55.3074 152.712 54.8683 153.317 54.5408 153.984C54.1852 154.707 53.9787 155.495 53.9336 156.3V174.94C53.932 175.269 53.8698 175.594 53.7502 175.9C53.6464 176.196 53.4541 176.452 53.1994 176.635C52.9854 176.772 52.7522 176.877 52.5075 176.946C52.2626 177.005 52.0112 177.034 51.7592 177.03H45.3777C45.0762 177.078 44.7678 177.056 44.4764 176.965C44.1851 176.874 43.9185 176.718 43.6973 176.508C43.4761 176.297 43.3064 176.039 43.2011 175.753C43.0958 175.466 43.0579 175.159 43.0903 174.856V143.278C43.0871 142.934 43.1697 142.596 43.3307 142.293C43.482 142 43.7118 141.756 43.9944 141.587L43.8208 141.676Z" fill="#0A1926"/>
<path d="M101.345 129.083C101.314 128.783 101.343 128.48 101.431 128.191C101.518 127.902 101.661 127.634 101.853 127.401C102.295 127.036 102.863 126.859 103.434 126.906H109.986C110.559 126.879 111.124 127.054 111.581 127.401C111.803 127.617 111.973 127.881 112.078 128.172C112.183 128.463 112.221 128.775 112.189 129.083V134.59C112.183 134.842 112.13 135.091 112.033 135.324C111.924 135.596 111.776 135.852 111.595 136.084C111.406 136.329 111.171 136.535 110.904 136.691C110.625 136.852 110.308 136.935 109.986 136.931H103.433C102.039 136.931 101.343 136.149 101.343 134.587L101.345 129.083ZM101.345 143.371C101.331 142.811 101.51 142.262 101.853 141.818C102.046 141.593 102.291 141.416 102.565 141.303C102.84 141.19 103.138 141.143 103.434 141.167H109.901C110.153 141.173 110.402 141.226 110.635 141.323C110.904 141.43 111.153 141.583 111.37 141.774C111.597 141.974 111.792 142.208 111.948 142.467C112.111 142.74 112.194 143.053 112.189 143.37V174.857C112.21 175.154 112.168 175.453 112.066 175.732C111.964 176.012 111.803 176.267 111.595 176.481C111.122 176.875 110.515 177.072 109.901 177.031H103.433C102.039 177.031 101.343 176.307 101.343 174.857L101.345 143.371Z" fill="#0A1926"/>
<path d="M117.075 129.055C117.057 128.511 117.215 127.976 117.526 127.53C117.715 127.308 117.955 127.135 118.226 127.027C118.497 126.919 118.79 126.878 119.08 126.908H125.998C126.205 126.914 126.408 126.967 126.591 127.064C126.808 127.175 127.004 127.323 127.17 127.502C127.356 127.701 127.509 127.93 127.622 128.179C127.747 128.454 127.809 128.753 127.806 129.055V174.858C127.827 175.156 127.784 175.456 127.679 175.736C127.574 176.016 127.41 176.271 127.198 176.482C126.766 176.859 126.205 177.056 125.631 177.032H119.08C118.796 177.063 118.509 177.029 118.24 176.933C117.972 176.838 117.728 176.684 117.526 176.482C117.193 176.009 117.034 175.435 117.075 174.858V129.055Z" fill="#0A1926"/>
<path d="M155.524 165.342C155.746 165.173 156.001 165.052 156.273 164.989C156.453 164.948 156.638 164.925 156.823 164.918C157.126 164.915 157.426 164.982 157.699 165.116C158.039 165.324 158.321 165.616 158.518 165.963L161.68 170.735C161.781 170.898 161.87 171.068 161.948 171.243C162.02 171.384 162.063 171.538 162.075 171.695C162.083 171.891 162.05 172.085 161.98 172.267C161.909 172.45 161.802 172.615 161.665 172.755C161.395 173.025 161.097 173.267 160.776 173.475C159.21 174.559 157.505 175.428 155.707 176.058C153.834 176.715 151.861 177.046 149.876 177.035C148.221 177.04 146.573 176.821 144.976 176.384C143.437 175.965 141.96 175.343 140.585 174.535C139.228 173.733 137.976 172.766 136.858 171.654C135.734 170.541 134.765 169.282 133.977 167.91C133.176 166.511 132.555 165.015 132.128 163.46C131.243 160.191 131.243 156.745 132.128 153.476C132.551 151.919 133.173 150.424 133.977 149.026C134.768 147.661 135.737 146.408 136.858 145.299C137.974 144.189 139.226 143.226 140.585 142.433C143.407 140.796 146.613 139.939 149.876 139.948C151.803 139.93 153.722 140.206 155.566 140.766C157.315 141.317 158.968 142.136 160.466 143.195L160.381 143.11C160.765 143.329 161.101 143.621 161.37 143.972C161.623 144.33 161.752 144.761 161.737 145.2C161.726 145.574 161.608 145.936 161.397 146.245L158.884 150.509C158.357 151.431 157.717 151.893 156.964 151.893C156.751 151.884 156.541 151.841 156.343 151.766C156.051 151.657 155.776 151.51 155.524 151.328C154.689 150.779 153.793 150.329 152.855 149.986C151.882 149.634 150.854 149.458 149.819 149.464C148.687 149.452 147.567 149.699 146.543 150.184C145.563 150.651 144.692 151.32 143.988 152.147C143.268 153 142.709 153.976 142.336 155.027C141.546 157.271 141.546 159.717 142.336 161.96C142.702 162.994 143.263 163.948 143.988 164.77C144.721 165.589 145.62 166.242 146.626 166.685C147.632 167.128 148.72 167.351 149.819 167.34C150.853 167.347 151.879 167.155 152.841 166.775C153.786 166.399 154.686 165.918 155.524 165.342Z" fill="#0A1926"/>
<path d="M200.056 174.294C200.058 174.607 200 174.919 199.887 175.211C199.615 175.731 199.148 176.121 198.588 176.297C198.347 176.348 198.101 176.377 197.854 176.381H192.291C191.964 176.393 191.637 176.34 191.331 176.226C191.099 176.133 190.895 175.982 190.738 175.788C190.575 175.579 190.447 175.346 190.358 175.097C190.254 174.824 190.145 174.527 190.032 174.207L189.665 172.936C189.121 173.475 188.541 173.975 187.928 174.433C187.255 174.937 186.537 175.377 185.782 175.746C184.978 176.141 184.136 176.453 183.269 176.678C182.36 176.915 181.425 177.034 180.487 177.031C178.823 177.037 177.165 176.818 175.559 176.38C172.484 175.545 169.684 173.913 167.441 171.65C165.183 169.377 163.558 166.555 162.725 163.461C162.287 161.836 162.068 160.16 162.074 158.477C162.055 156.036 162.52 153.615 163.441 151.355C164.361 149.094 165.72 147.037 167.439 145.304C169.151 143.593 171.186 142.239 173.426 141.32C175.665 140.402 178.065 139.937 180.485 139.953C181.585 139.944 182.681 140.077 183.747 140.348C184.709 140.594 185.638 140.954 186.514 141.421C187.338 141.863 188.102 142.408 188.787 143.044C189.452 143.66 190.049 144.347 190.566 145.092L191.385 142.522C191.573 142.052 191.728 141.67 191.851 141.378C191.941 141.138 192.075 140.917 192.247 140.727C192.39 140.585 192.571 140.487 192.769 140.445C193.057 140.391 193.351 140.367 193.645 140.374H197.852C198.099 140.379 198.345 140.407 198.586 140.459C198.865 140.514 199.121 140.651 199.32 140.855C199.565 141.038 199.759 141.281 199.885 141.56C200.002 141.847 200.06 142.154 200.054 142.464L200.056 174.294ZM172.241 158.48C172.232 159.667 172.428 160.847 172.82 161.967C173.179 163.004 173.74 163.96 174.472 164.777C175.196 165.574 176.075 166.213 177.056 166.655C178.108 167.126 179.25 167.362 180.403 167.347C181.61 167.358 182.806 167.123 183.919 166.655C184.97 166.214 185.928 165.577 186.74 164.777C187.548 163.976 188.186 163.02 188.618 161.967C189.522 159.745 189.522 157.257 188.618 155.035C188.18 153.964 187.543 152.987 186.74 152.154C185.936 151.323 184.978 150.656 183.919 150.191C182.811 149.706 181.612 149.461 180.403 149.471C179.247 149.456 178.103 149.703 177.056 150.191C176.067 150.658 175.187 151.326 174.472 152.154C173.746 153.002 173.185 153.979 172.82 155.035C172.432 156.142 172.236 157.307 172.241 158.481V158.48Z" fill="#0A1926"/>
<path d="M204.944 143.259C204.936 142.937 205.004 142.618 205.142 142.327C205.265 142.073 205.444 141.851 205.665 141.676C205.884 141.505 206.133 141.376 206.399 141.296C206.659 141.213 206.93 141.17 207.204 141.168H211.468C211.675 141.158 211.882 141.191 212.076 141.264C212.27 141.337 212.447 141.448 212.597 141.592C212.899 141.904 213.143 142.267 213.317 142.665C213.527 143.131 213.702 143.613 213.84 144.106C213.987 144.624 214.166 145.134 214.376 145.63C214.941 145.009 215.502 144.397 216.058 143.795C216.602 143.202 217.202 142.663 217.849 142.185C218.496 141.711 219.204 141.326 219.953 141.041C220.79 140.737 221.675 140.588 222.565 140.604C223.479 140.595 224.391 140.671 225.291 140.83C226.068 140.974 226.83 141.197 227.564 141.493C228.307 141.8 229.02 142.173 229.696 142.609C230.402 143.061 231.169 143.588 231.997 144.19C232.806 144.66 233.211 145.216 233.212 145.856C233.18 146.37 233.015 146.867 232.731 147.297L230.161 151.674C229.966 152.004 229.69 152.278 229.359 152.471C229.028 152.663 228.653 152.768 228.27 152.775C227.829 152.76 227.397 152.654 226.999 152.464C226.282 151.739 225.446 151.143 224.528 150.699C223.626 150.3 222.648 150.103 221.662 150.12C221.004 150.108 220.349 150.213 219.728 150.431C219.178 150.635 218.667 150.931 218.217 151.307C217.742 151.708 217.316 152.163 216.946 152.663C216.551 153.191 216.155 153.774 215.76 154.414V174.859C215.803 175.448 215.616 176.03 215.238 176.483C215.001 176.687 214.725 176.841 214.426 176.936C214.128 177.031 213.813 177.064 213.502 177.034H207.148C205.679 177.034 204.945 176.309 204.945 174.859L204.944 143.259Z" fill="#0A1926"/>
<path d="M106.832 191.972C107.107 191.469 107.434 190.996 107.809 190.561C108.26 190.028 108.777 189.554 109.348 189.15C109.985 188.7 110.678 188.335 111.41 188.065C112.223 187.766 113.085 187.617 113.952 187.627C114.871 187.623 115.79 187.665 116.704 187.754C117.493 187.833 118.273 187.985 119.034 188.206C119.773 188.425 120.487 188.718 121.166 189.082C121.921 189.492 122.643 189.959 123.326 190.479C123.589 190.681 123.839 190.898 124.075 191.131C124.204 191.249 124.308 191.393 124.378 191.553C124.449 191.714 124.485 191.887 124.484 192.062C124.487 192.26 124.438 192.454 124.343 192.627L122.677 195.197C122.589 195.331 122.473 195.443 122.336 195.526C122.199 195.609 122.046 195.661 121.887 195.677C121.732 195.676 121.582 195.621 121.463 195.522C121.331 195.418 121.171 195.301 120.983 195.169C119.933 194.438 118.788 193.854 117.58 193.433C116.445 193.06 115.258 192.874 114.064 192.881C113.133 192.88 112.211 193.063 111.35 193.419C110.49 193.775 109.709 194.298 109.051 194.957C108.358 195.662 107.811 196.497 107.441 197.414C107.022 198.459 106.816 199.578 106.835 200.703V222.815C106.859 222.984 106.843 223.156 106.789 223.318C106.735 223.479 106.645 223.626 106.524 223.747C106.403 223.867 106.256 223.958 106.095 224.012C105.933 224.066 105.761 224.082 105.592 224.057H102.655C101.789 224.057 101.356 223.643 101.357 222.815V189.436C101.349 189.268 101.378 189.101 101.442 188.945C101.505 188.789 101.601 188.649 101.723 188.533C101.96 188.311 102.274 188.189 102.599 188.194H105.536C105.71 188.186 105.884 188.215 106.047 188.278C106.21 188.341 106.358 188.438 106.481 188.562C106.595 188.677 106.685 188.813 106.746 188.964C106.807 189.114 106.837 189.275 106.835 189.436L106.832 191.972Z" fill="#0A1926"/>
<path d="M151.732 215.185C151.905 215.032 152.089 214.89 152.283 214.762C152.393 214.677 152.52 214.617 152.656 214.587C152.791 214.556 152.932 214.556 153.068 214.585C153.204 214.615 153.332 214.674 153.442 214.758C153.553 214.842 153.644 214.95 153.709 215.073C154.085 215.579 154.391 215.993 154.626 216.315C154.862 216.636 155.055 216.891 155.205 217.077C155.356 217.285 155.469 217.435 155.544 217.529C155.635 217.636 155.711 217.755 155.771 217.883C155.828 218.011 155.857 218.151 155.855 218.292C155.844 218.532 155.76 218.763 155.616 218.955C155.378 219.27 155.098 219.551 154.783 219.789C153.98 220.424 153.136 221.004 152.255 221.525C151.375 222.045 150.454 222.494 149.502 222.866C148.518 223.25 147.502 223.543 146.466 223.742C143.731 224.253 140.915 224.132 138.234 223.389C136.685 222.953 135.199 222.317 133.815 221.497C131.051 219.863 128.737 217.568 127.08 214.819C126.248 213.437 125.602 211.951 125.159 210.399C124.704 208.806 124.476 207.156 124.482 205.499C124.472 202.225 125.314 199.004 126.923 196.153C128.491 193.39 130.761 191.091 133.503 189.488C134.911 188.669 136.421 188.037 137.993 187.61C139.654 187.161 141.369 186.938 143.09 186.947C144.506 186.947 145.918 187.108 147.298 187.426C148.682 187.744 150.027 188.212 151.308 188.824C152.593 189.439 153.801 190.202 154.908 191.097C156.034 192.007 157.044 193.05 157.916 194.204C159.143 195.869 160.052 197.745 160.599 199.739C161.213 202.069 161.489 204.475 161.418 206.884C161.418 207.768 161.004 208.211 160.175 208.211H130.413C130.723 209.692 131.293 211.106 132.095 212.389C132.876 213.647 133.848 214.776 134.975 215.736C136.09 216.683 137.356 217.437 138.72 217.967C140.078 218.5 141.524 218.773 142.984 218.771C143.929 218.781 144.872 218.682 145.794 218.475C146.582 218.294 147.349 218.029 148.081 217.685C148.749 217.366 149.387 216.988 149.987 216.555C150.57 216.131 151.135 215.693 151.681 215.242L151.732 215.185ZM136.257 194.288C134.813 195.262 133.559 196.492 132.558 197.917C131.53 199.36 130.81 200.999 130.441 202.732H155.969C155.781 201.226 155.286 199.775 154.515 198.468C153.77 197.208 152.798 196.097 151.649 195.192C150.482 194.278 149.169 193.567 147.766 193.088C146.327 192.59 144.813 192.337 143.29 192.34C142.064 192.34 140.844 192.502 139.661 192.82C138.461 193.142 137.315 193.637 136.257 194.288Z" fill="#0A1926"/>
<path d="M169.625 188.02C169.983 188.96 170.445 190.156 171.01 191.606C171.575 193.056 172.186 194.624 172.845 196.308C173.504 197.993 174.187 199.73 174.892 201.517C175.598 203.305 176.276 205.009 176.925 206.628C177.576 208.247 178.169 209.72 178.704 211.048C179.24 212.376 179.668 213.425 179.989 214.195C180.29 213.424 180.704 212.375 181.232 211.048C181.76 209.721 182.339 208.243 182.969 206.614C183.599 204.986 184.263 203.278 184.96 201.489C185.656 199.699 186.329 197.963 186.978 196.279C187.629 194.594 188.232 193.027 188.786 191.577C189.34 190.127 189.796 188.932 190.155 187.991C190.272 187.691 190.467 187.427 190.72 187.228C190.99 187.032 191.319 186.932 191.652 186.946H194.786C195.615 186.946 196.029 187.275 196.029 187.934C196.027 188.001 196.018 188.067 196.001 188.132C195.978 188.218 195.95 188.303 195.916 188.386C195.876 188.487 195.848 188.591 195.831 188.697L189.195 205.047L177.899 232.722V232.668C177.803 232.985 177.603 233.26 177.331 233.449C177.06 233.638 176.733 233.731 176.403 233.713H173.607C172.702 233.713 172.25 233.365 172.25 232.668C172.25 232.53 172.268 232.392 172.304 232.258C172.331 232.171 172.349 232.081 172.359 231.99L177.074 220.61L163.972 188.728C163.953 188.674 163.934 188.606 163.917 188.53C163.877 188.345 163.858 188.155 163.863 187.966C163.863 187.307 164.296 186.977 165.162 186.977H168.127C168.461 186.964 168.789 187.063 169.059 187.26C169.312 187.458 169.508 187.72 169.625 188.02Z" fill="#0A1926"/>
</svg>
