<svg width="563" height="133" viewBox="0 0 563 133" fill="none" xmlns="http://www.w3.org/2000/svg">
<path d="M42.9336 119.24H29.8555L65.6232 0.118042H78.7022L42.9336 119.24Z" fill="#9F9F9F"/>
<path d="M56.825 7.95296L54.28 5.40796L0.00878906 59.6791L31.7581 91.4284L56.825 7.95296Z" fill="#5A5A5A"/>
<path d="M76.8013 27.9288L51.7344 111.404L54.2794 113.949L108.551 59.6781L76.8013 27.9288Z" fill="#5A5A5A"/>
<path d="M156.149 115.462C156.151 115.895 156.071 116.325 155.915 116.729C155.539 117.447 154.895 117.986 154.123 118.229C153.789 118.301 153.45 118.34 153.109 118.346H145.436C144.985 118.362 144.535 118.289 144.112 118.132C143.793 118.003 143.511 117.795 143.294 117.528C143.07 117.239 142.893 116.917 142.768 116.573C142.625 116.197 142.476 115.788 142.321 115.347L141.814 113.591C141.064 114.335 140.264 115.024 139.418 115.656C138.49 116.351 137.499 116.957 136.458 117.466C135.348 118.01 134.187 118.441 132.991 118.752C131.738 119.079 130.449 119.243 129.154 119.239C126.859 119.248 124.572 118.947 122.358 118.344C118.116 117.191 114.254 114.941 111.16 111.82C108.045 108.685 105.803 104.791 104.655 100.524C104.051 98.2828 103.75 95.9708 103.759 93.6497C103.733 90.2828 104.374 86.9442 105.644 83.826C106.914 80.7078 108.788 77.8716 111.159 75.4806C113.52 73.1205 116.327 71.2528 119.416 69.9858C122.505 68.7189 125.814 68.0779 129.153 68.1C130.67 68.0885 132.182 68.2717 133.652 68.6451C134.979 68.9848 136.26 69.4817 137.469 70.1254C138.605 70.7364 139.659 71.49 140.605 72.3681C141.522 73.2195 142.345 74.1676 143.058 75.1959L144.187 71.6514C144.447 71.0013 144.661 70.4754 144.83 70.0736C144.953 69.7433 145.138 69.4393 145.375 69.1776C145.573 68.9812 145.823 68.8458 146.095 68.7875C146.494 68.7129 146.899 68.6803 147.304 68.69H153.106C153.447 68.6961 153.786 68.7353 154.12 68.807C154.504 68.8826 154.857 69.073 155.132 69.3531C155.47 69.6067 155.739 69.9423 155.912 70.3282C156.074 70.7233 156.153 71.1473 156.146 71.5743L156.149 115.462ZM117.784 93.6506C117.771 95.288 118.042 96.9154 118.583 98.4608C119.078 99.8913 119.852 101.209 120.862 102.337C121.859 103.435 123.072 104.316 124.425 104.925C125.876 105.574 127.451 105.9 129.04 105.879C130.704 105.894 132.355 105.569 133.889 104.925C135.34 104.317 136.663 103.438 137.785 102.335C138.898 101.229 139.779 99.911 140.375 98.4589C141.621 95.3934 141.621 91.9625 140.375 88.897C139.77 87.421 138.891 86.0731 137.785 84.9245C136.674 83.7779 135.351 82.8584 133.889 82.2176C132.361 81.5482 130.708 81.2095 129.04 81.2239C127.446 81.2036 125.869 81.5433 124.425 82.2176C123.061 82.8607 121.846 83.7829 120.861 84.9245C119.858 86.0938 119.085 87.4414 118.582 88.897C118.046 90.4243 117.776 92.0321 117.784 93.6506V93.6506Z" fill="#5A5A5A"/>
<path d="M163.903 70.4715C164.208 70.2021 164.577 70.0145 164.975 69.9264C165.328 69.8508 165.687 69.8116 166.048 69.8094H171.93C172.346 69.7986 172.76 69.8854 173.137 70.063C173.468 70.2272 173.76 70.4599 173.994 70.7455C174.232 71.039 174.423 71.368 174.559 71.7206C174.701 72.0834 174.837 72.4585 174.967 72.8459L175.785 76.2587C176.788 74.2712 178.325 72.6032 180.225 71.4427C181.471 70.6873 182.814 70.1056 184.217 69.7138C185.987 69.2309 187.816 69.0011 189.65 69.0313C191.151 69.0167 192.648 69.1804 194.11 69.5189C195.393 69.8214 196.626 70.3054 197.772 70.9562C198.88 71.5928 199.897 72.3767 200.795 73.2866C201.748 74.2598 202.608 75.3194 203.365 76.4518C203.977 75.5117 204.718 74.662 205.566 73.9273C206.626 72.9868 207.797 72.1781 209.052 71.5188C210.488 70.7594 212.003 70.16 213.57 69.7314C215.296 69.2567 217.078 69.0215 218.867 69.0323C221.551 68.9695 224.21 69.5556 226.618 70.7407C228.789 71.8499 230.675 73.4449 232.13 75.4016C233.647 77.4761 234.764 79.8163 235.42 82.3015C236.162 85.048 236.529 87.8824 236.511 90.7273V116.239C236.569 117.039 236.341 117.834 235.868 118.482C235.605 118.753 235.284 118.962 234.93 119.093C234.576 119.225 234.197 119.275 233.82 119.241H224.823C224.015 119.327 223.202 119.127 222.525 118.677C222.28 118.37 222.098 118.017 221.991 117.639C221.884 117.261 221.854 116.866 221.902 116.476V90.7331C221.912 89.6702 221.734 88.6138 221.376 87.6128C221.048 86.6922 220.552 85.8406 219.913 85.101C219.285 84.3829 218.507 83.811 217.635 83.4257C216.696 83.0141 215.68 82.8079 214.655 82.8212C213.689 82.817 212.734 83.0164 211.85 83.4063C210.974 83.7902 210.18 84.3387 209.51 85.022C208.815 85.7406 208.266 86.5874 207.893 87.5153C207.481 88.5374 207.276 89.6312 207.29 90.7331V116.245C207.348 117.045 207.12 117.84 206.647 118.487C206.384 118.759 206.064 118.968 205.709 119.099C205.355 119.23 204.976 119.281 204.599 119.247H195.612C194.803 119.333 193.99 119.133 193.314 118.682C193.068 118.376 192.887 118.023 192.78 117.645C192.673 117.267 192.642 116.872 192.691 116.482V90.739C192.7 89.6792 192.535 88.6251 192.203 87.6187C191.901 86.6994 191.425 85.8466 190.801 85.1068C190.192 84.3932 189.434 83.8215 188.581 83.4316C187.657 83.0175 186.653 82.8112 185.641 82.8271C184.697 82.8294 183.763 83.0217 182.895 83.3926C181.997 83.7699 181.178 84.3113 180.479 84.9888C179.745 85.7047 179.139 86.5411 178.688 87.4617C178.198 88.4592 177.913 89.5452 177.85 90.6551V116.362C177.848 116.815 177.763 117.264 177.598 117.686C177.455 118.094 177.189 118.447 176.838 118.699C176.543 118.888 176.221 119.032 175.884 119.127C175.546 119.21 175.199 119.249 174.851 119.244H166.049C165.633 119.31 165.208 119.279 164.806 119.154C164.404 119.029 164.036 118.813 163.731 118.523C163.426 118.233 163.191 117.877 163.046 117.482C162.901 117.087 162.849 116.663 162.893 116.245V72.685C162.889 72.2114 163.003 71.744 163.225 71.3257C163.433 70.9218 163.75 70.584 164.14 70.3506L163.903 70.4715Z" fill="#5A5A5A"/>
<path d="M243.243 53.1039C243.202 52.6905 243.242 52.2731 243.363 51.8755C243.483 51.4779 243.681 51.108 243.944 50.7871C244.555 50.2837 245.337 50.0388 246.126 50.1045H255.162C255.953 50.0673 256.732 50.3089 257.363 50.7871C257.668 51.085 257.902 51.4482 258.047 51.8495C258.192 52.2507 258.245 52.6795 258.2 53.1039V60.6999C258.193 61.0477 258.12 61.391 257.986 61.7121C257.835 62.0892 257.632 62.4431 257.382 62.7632C257.122 63.1019 256.797 63.3864 256.428 63.6008C256.043 63.8242 255.605 63.9388 255.16 63.9323H246.124C244.202 63.9323 243.241 62.8549 243.241 60.6999L243.243 53.1039ZM243.243 72.8126C243.224 72.0382 243.471 71.2808 243.944 70.6674C244.212 70.3567 244.549 70.1136 244.928 69.9579C245.307 69.8021 245.717 69.7382 246.126 69.7713H255.045C255.393 69.7788 255.737 69.8516 256.058 69.9858C256.429 70.1337 256.772 70.3444 257.071 70.6088C257.385 70.8842 257.654 71.2062 257.869 71.5635C258.093 71.94 258.208 72.3715 258.2 72.8097V116.237C258.231 116.647 258.173 117.059 258.032 117.446C257.891 117.833 257.67 118.185 257.382 118.479C256.729 119.024 255.891 119.296 255.042 119.239H246.123C244.201 119.239 243.24 118.239 243.24 116.24L243.243 72.8126Z" fill="#5A5A5A"/>
<path d="M264.941 53.065C264.916 52.3151 265.135 51.5772 265.564 50.9617C265.825 50.6551 266.156 50.4168 266.53 50.2675C266.904 50.1181 267.309 50.0622 267.709 50.1046H277.251C277.537 50.1114 277.817 50.1845 278.069 50.3181C278.369 50.4719 278.639 50.6764 278.868 50.9227C279.125 51.1984 279.336 51.5142 279.491 51.8578C279.663 52.2367 279.75 52.6489 279.745 53.065V116.237C279.775 116.649 279.715 117.063 279.571 117.45C279.426 117.837 279.2 118.188 278.907 118.48C278.31 119 277.536 119.272 276.745 119.239H267.709C267.317 119.281 266.921 119.235 266.55 119.103C266.179 118.972 265.842 118.759 265.564 118.48C265.103 117.826 264.883 117.034 264.941 116.237V53.065Z" fill="#5A5A5A"/>
<path d="M317.974 103.115C318.28 102.882 318.632 102.715 319.006 102.627C319.256 102.572 319.51 102.539 319.766 102.53C320.184 102.525 320.597 102.618 320.973 102.802C321.442 103.09 321.831 103.493 322.102 103.972L326.465 110.554C326.603 110.779 326.727 111.013 326.834 111.255C326.934 111.449 326.994 111.661 327.01 111.878C327.02 112.148 326.976 112.416 326.879 112.668C326.782 112.919 326.634 113.148 326.445 113.341C326.072 113.714 325.661 114.047 325.219 114.333C323.058 115.83 320.707 117.028 318.227 117.897C315.643 118.802 312.922 119.257 310.184 119.241C307.902 119.248 305.629 118.947 303.427 118.346C301.304 117.768 299.267 116.91 297.371 115.794C295.499 114.689 293.772 113.354 292.23 111.822C290.68 110.287 289.344 108.551 288.257 106.66C287.152 104.731 286.295 102.67 285.707 100.526C284.486 96.0177 284.486 91.2659 285.707 86.7576C286.291 84.6118 287.148 82.5498 288.257 80.6223C289.348 78.7401 290.684 77.0114 292.23 75.4815C293.769 73.9512 295.496 72.6229 297.371 71.5284C301.263 69.2714 305.686 68.0886 310.185 68.101C312.844 68.076 315.49 68.4567 318.034 69.2301C320.447 69.9891 322.727 71.1191 324.791 72.5796L324.674 72.4626C325.204 72.7633 325.668 73.1672 326.04 73.6503C326.389 74.1446 326.567 74.7399 326.546 75.345C326.531 75.8601 326.369 76.3602 326.079 76.7862L322.612 82.6671C322.39 83.1986 322.025 83.6583 321.557 83.9952C321.09 84.332 320.538 84.5327 319.964 84.5753C319.67 84.5636 319.381 84.5043 319.107 84.3998C318.705 84.2494 318.325 84.0465 317.977 83.7962C316.826 83.0382 315.591 82.4165 314.296 81.9435C312.954 81.4581 311.537 81.2141 310.109 81.2229C308.548 81.2068 307.003 81.5466 305.592 82.2165C304.239 82.8603 303.038 83.7828 302.067 84.9234C301.074 86.0995 300.302 87.4454 299.788 88.896C298.698 91.9901 298.698 95.3638 299.788 98.4578C300.293 99.8835 301.067 101.199 302.067 102.334C303.078 103.463 304.318 104.364 305.705 104.975C307.092 105.586 308.594 105.894 310.109 105.878C311.536 105.888 312.951 105.623 314.277 105.098C315.579 104.577 316.819 103.912 317.974 103.115Z" fill="#5A5A5A"/>
<path d="M379.397 115.462C379.399 115.895 379.32 116.325 379.163 116.729C378.787 117.447 378.143 117.986 377.371 118.229C377.038 118.301 376.699 118.34 376.359 118.346H368.685C368.234 118.362 367.784 118.289 367.361 118.132C367.042 118.003 366.76 117.795 366.543 117.528C366.319 117.239 366.142 116.917 366.018 116.573C365.874 116.197 365.725 115.788 365.57 115.347L365.063 113.591C364.314 114.335 363.514 115.024 362.668 115.656C361.74 116.35 360.749 116.957 359.708 117.466C358.598 118.01 357.437 118.441 356.241 118.752C354.988 119.079 353.699 119.243 352.404 119.239C350.109 119.248 347.823 118.947 345.608 118.344C341.366 117.192 337.504 114.941 334.41 111.82C331.295 108.685 329.053 104.791 327.905 100.524C327.301 98.2828 327 95.9708 327.009 93.6496C326.982 90.2823 327.623 86.943 328.892 83.8241C330.162 80.7051 332.036 77.8682 334.407 75.4767C336.768 73.1166 339.575 71.2488 342.664 69.9819C345.753 68.7149 349.063 68.074 352.401 68.0961C353.918 68.0846 355.43 68.2677 356.9 68.6412C358.227 68.9808 359.508 69.4777 360.717 70.1214C361.853 70.7324 362.907 71.486 363.853 72.3641C364.77 73.2155 365.593 74.1637 366.307 75.1919L367.436 71.6474C367.696 70.9974 367.911 70.4715 368.079 70.0697C368.203 69.7394 368.388 69.4353 368.624 69.1736C368.822 68.9773 369.072 68.8419 369.345 68.7835C369.743 68.709 370.148 68.6763 370.553 68.6861H376.356C376.696 68.6922 377.035 68.7314 377.368 68.8031C377.753 68.8784 378.106 69.0688 378.381 69.3491C378.719 69.6027 378.988 69.9383 379.161 70.3242C379.323 70.7193 379.403 71.1434 379.395 71.5704L379.397 115.462ZM341.032 93.6496C341.019 95.2871 341.289 96.9144 341.83 98.4598C342.325 99.8902 343.099 101.208 344.108 102.336C345.104 103.434 346.316 104.315 347.668 104.925C349.119 105.574 350.694 105.9 352.283 105.879C353.948 105.894 355.598 105.569 357.132 104.925C358.583 104.317 359.905 103.438 361.027 102.335C362.141 101.229 363.021 99.911 363.617 98.4589C364.863 95.3934 364.863 91.9624 363.617 88.897C363.013 87.4209 362.134 86.0729 361.027 84.9244C359.917 83.778 358.594 82.8586 357.132 82.2176C355.604 81.5482 353.952 81.2095 352.283 81.2239C350.69 81.2036 349.112 81.5433 347.668 82.2176C346.304 82.8608 345.09 83.7829 344.104 84.9244C343.102 86.094 342.33 87.4416 341.826 88.897C341.291 90.4244 341.023 92.0323 341.032 93.6506V93.6496Z" fill="#5A5A5A"/>
<path d="M386.137 72.6567C386.126 72.2128 386.219 71.7727 386.41 71.3715C386.58 71.0227 386.826 70.7168 387.13 70.4764C387.433 70.2407 387.777 70.0626 388.144 69.9508C388.503 69.8368 388.877 69.7776 389.253 69.7753H395.134C395.42 69.7617 395.706 69.8066 395.974 69.9072C396.243 70.0077 396.487 70.162 396.694 70.3604C397.111 70.7905 397.447 71.2918 397.687 71.8406C397.976 72.4839 398.217 73.1478 398.407 73.8268C398.611 74.5424 398.858 75.2449 399.148 75.9302C399.928 75.0727 400.7 74.2276 401.465 73.3949C402.216 72.5771 403.045 71.8335 403.938 71.1746C404.83 70.5209 405.806 69.9902 406.84 69.5968C407.994 69.1768 409.215 68.9723 410.443 68.9933C411.703 68.9812 412.961 69.0853 414.201 69.3043C415.274 69.5039 416.325 69.8107 417.337 70.22C418.362 70.6428 419.346 71.1578 420.278 71.7587C421.253 72.3814 422.311 73.1085 423.452 73.94C423.914 74.1344 424.313 74.4511 424.608 74.8559C424.903 75.2607 425.083 75.7383 425.126 76.2373C425.083 76.9462 424.855 77.6314 424.464 78.2246L420.92 84.2614C420.65 84.7161 420.269 85.0944 419.812 85.3602C419.356 85.6259 418.839 85.7703 418.31 85.7796C417.702 85.7598 417.104 85.6141 416.555 85.3516C415.565 84.35 414.411 83.5255 413.142 82.9138C411.898 82.3632 410.549 82.0907 409.189 82.1152C408.281 82.098 407.378 82.2433 406.521 82.5442C405.763 82.8255 405.059 83.2337 404.437 83.7515C403.782 84.3043 403.193 84.9316 402.682 85.6207C402.137 86.3481 401.592 87.1529 401.047 88.035V116.235C401.107 117.048 400.849 117.852 400.326 118.478C399.999 118.76 399.618 118.972 399.206 119.103C398.795 119.234 398.361 119.279 397.931 119.237H389.166C387.141 119.237 386.129 118.238 386.128 116.238L386.137 72.6567Z" fill="#5A5A5A"/>
<path d="M439.421 74.994C439.799 74.2985 440.249 73.6448 440.765 73.0438C441.387 72.3065 442.1 71.6512 442.887 71.0936C443.766 70.4715 444.722 69.9672 445.731 69.5939C446.853 69.1814 448.041 68.9769 449.236 68.9904C450.504 68.9839 451.772 69.0421 453.033 69.1649C454.123 69.2734 455.2 69.482 456.251 69.788C457.27 70.0891 458.255 70.4935 459.192 70.9951C460.233 71.5615 461.229 72.2063 462.172 72.9239C462.534 73.2008 462.879 73.4997 463.205 73.819C463.383 73.9819 463.526 74.1805 463.623 74.4018C463.72 74.6232 463.77 74.8624 463.769 75.1042C463.773 75.3767 463.706 75.6455 463.574 75.8843L461.277 79.4288C461.155 79.6133 460.995 79.7684 460.806 79.8829C460.617 79.9975 460.405 80.0685 460.186 80.0909C459.972 80.089 459.765 80.0132 459.601 79.8764C459.419 79.734 459.199 79.5715 458.939 79.3888C457.491 78.38 455.912 77.5739 454.245 76.993C452.68 76.4794 451.042 76.2229 449.395 76.2334C448.111 76.2317 446.84 76.4838 445.653 76.9751C444.467 77.4664 443.39 78.1873 442.483 79.0963C441.527 80.0689 440.773 81.2203 440.262 82.4848C439.684 83.9264 439.4 85.469 439.426 87.0219V117.527C439.459 117.76 439.437 117.997 439.363 118.22C439.288 118.443 439.163 118.646 438.997 118.812C438.83 118.978 438.628 119.103 438.405 119.178C438.182 119.252 437.944 119.273 437.712 119.24H433.661C432.466 119.24 431.869 118.669 431.87 117.527V71.4885C431.86 71.2566 431.9 71.0253 431.987 70.8103C432.074 70.5952 432.207 70.4015 432.376 70.2424C432.702 69.9349 433.136 69.7669 433.584 69.7743H437.635C437.875 69.7632 438.116 69.8026 438.34 69.8899C438.565 69.9772 438.769 70.1106 438.939 70.2814C439.097 70.4401 439.221 70.6286 439.305 70.8359C439.388 71.0432 439.43 71.265 439.427 71.4885L439.421 74.994Z" fill="#5A5A5A"/>
<path d="M501.35 107.009C501.589 106.797 501.843 106.602 502.11 106.424C502.262 106.308 502.437 106.225 502.624 106.183C502.811 106.141 503.005 106.141 503.193 106.182C503.38 106.223 503.556 106.304 503.709 106.42C503.862 106.536 503.987 106.684 504.076 106.853C504.597 107.554 505.019 108.126 505.344 108.568C505.669 109.01 505.935 109.36 506.143 109.619C506.35 109.905 506.506 110.113 506.61 110.242C506.735 110.39 506.84 110.554 506.922 110.729C507.001 110.907 507.041 111.1 507.038 111.294C507.022 111.626 506.906 111.945 506.706 112.21C506.378 112.644 505.992 113.031 505.557 113.358C504.451 114.234 503.286 115.035 502.072 115.753C500.857 116.472 499.587 117.091 498.273 117.606C496.918 118.135 495.517 118.539 494.087 118.814C490.315 119.519 486.431 119.352 482.733 118.327C480.597 117.725 478.548 116.848 476.638 115.717C472.826 113.463 469.634 110.298 467.348 106.505C466.201 104.599 465.311 102.549 464.7 100.41C464.073 98.2122 463.758 95.9371 463.766 93.6516C463.753 89.135 464.914 84.6926 467.135 80.7598C469.297 76.9492 472.427 73.7779 476.21 71.5675C478.152 70.437 480.234 69.5662 482.403 68.9776C484.695 68.3581 487.059 68.0501 489.433 68.062C491.386 68.0628 493.333 68.2849 495.236 68.7241C497.145 69.1618 499 69.8087 500.767 70.6529C502.539 71.5005 504.206 72.5526 505.733 73.7878C507.285 75.0418 508.678 76.4806 509.881 78.0724C511.573 80.3681 512.827 82.956 513.581 85.7065C514.428 88.92 514.809 92.2388 514.711 95.5608C514.711 96.7816 514.139 97.3917 512.997 97.3911H471.945C472.372 99.434 473.157 101.386 474.263 103.156C475.339 104.891 476.68 106.449 478.235 107.772C479.772 109.078 481.516 110.118 483.395 110.848C485.269 111.584 487.264 111.96 489.276 111.958C490.579 111.972 491.88 111.834 493.151 111.549C494.239 111.3 495.297 110.934 496.307 110.458C497.23 110.019 498.111 109.497 498.94 108.898C499.744 108.313 500.524 107.709 501.28 107.086L501.35 107.009ZM480.006 78.1864C478.014 79.5293 476.285 81.2257 474.904 83.1916C473.484 85.1816 472.489 87.4422 471.979 89.8331H507.189C506.929 87.756 506.247 85.7541 505.183 83.9513C504.156 82.2141 502.816 80.6822 501.23 79.4336C499.62 78.1732 497.81 77.1923 495.875 76.5317C493.889 75.8441 491.802 75.4953 489.7 75.5C488.01 75.5006 486.327 75.7232 484.695 76.1621C483.042 76.6067 481.463 77.2889 480.006 78.1875V78.1864Z" fill="#5A5A5A"/>
<path d="M526.031 69.5413C526.524 70.8414 527.16 72.4903 527.94 74.4879C528.72 76.4856 529.565 78.6474 530.475 80.9733C531.385 83.2973 532.328 85.6928 533.303 88.1598C534.278 90.6268 535.213 92.9768 536.108 95.2098C537.003 97.4428 537.822 99.4746 538.562 101.305C539.302 103.136 539.893 104.583 540.335 105.648C540.749 104.584 541.32 103.136 542.048 101.305C542.775 99.4739 543.574 97.4357 544.444 95.1903C545.314 92.9443 546.229 90.5878 547.19 88.1208C548.15 85.6538 549.079 83.2586 549.974 80.9353C550.87 78.6113 551.701 76.4495 552.468 74.4499C553.234 72.4503 553.864 70.8014 554.357 69.5032C554.518 69.0892 554.787 68.7258 555.137 68.451C555.509 68.1802 555.962 68.0429 556.422 68.061H560.746C561.888 68.061 562.459 68.5161 562.46 69.4261C562.457 69.5181 562.444 69.6095 562.42 69.6983C562.388 69.8177 562.349 69.9349 562.303 70.0493C562.249 70.1875 562.21 70.3309 562.186 70.4773L553.033 93.0295L537.453 131.2V131.122C537.32 131.558 537.044 131.938 536.67 132.199C536.296 132.46 535.845 132.588 535.389 132.563H531.533C530.287 132.563 529.664 132.083 529.664 131.122C529.665 130.931 529.691 130.741 529.742 130.557C529.779 130.436 529.805 130.312 529.82 130.187L536.325 114.488L518.251 70.5105C518.226 70.4325 518.2 70.3418 518.173 70.2375C518.116 69.9816 518.09 69.7196 518.095 69.4574C518.095 68.5473 518.692 68.0922 519.887 68.0922H523.976C524.436 68.0741 524.889 68.2115 525.261 68.4823C525.608 68.7605 525.873 69.126 526.031 69.5413V69.5413Z" fill="#5A5A5A"/>
</svg>
