<svg width="234" height="235" viewBox="0 0 234 235" fill="none" xmlns="http://www.w3.org/2000/svg">
<path d="M70.7412 126.835H56.8877L94.7792 0.651611H108.633L70.7412 126.835Z" fill="#9F9F9F"/>
<path d="M85.4551 8.95453L82.7584 6.25781L25.2715 63.7449L58.9027 97.3761L85.4551 8.95453Z" fill="#5A5A5A"/>
<path d="M106.616 30.1138L80.0664 118.537L82.7629 121.234L140.25 63.7465L106.616 30.1138Z" fill="#5A5A5A"/>
<path d="M38.1896 174.707C38.1907 175.021 38.1331 175.332 38.0198 175.624C37.7465 176.142 37.2791 176.531 36.7201 176.705C36.4785 176.757 36.2325 176.785 35.9854 176.79H30.4286C30.1016 176.801 29.7752 176.749 29.4684 176.635C29.237 176.542 29.0332 176.391 28.8758 176.197C28.7132 175.988 28.5844 175.755 28.4945 175.505C28.3916 175.233 28.2836 174.936 28.1704 174.615L27.8029 173.344C27.2597 173.883 26.6794 174.384 26.0664 174.842C25.3939 175.346 24.6755 175.785 23.9208 176.155C23.1165 176.548 22.2747 176.858 21.408 177.081C20.5009 177.318 19.567 177.437 18.6295 177.435C16.9649 177.441 15.307 177.223 13.7009 176.785C10.6258 175.95 7.82527 174.318 5.58173 172.055C3.32409 169.782 1.69879 166.959 0.866234 163.865C0.428583 162.24 0.210004 160.564 0.21636 158.881C0.197721 156.44 0.662162 154.019 1.583 151.758C2.50383 149.497 3.8628 147.44 5.58173 145.707C7.29409 143.995 9.32929 142.641 11.5691 141.723C13.8089 140.804 16.2087 140.339 18.6295 140.355C19.7291 140.347 20.8253 140.48 21.8911 140.75C22.8535 140.999 23.7826 141.361 24.6587 141.831C25.4828 142.273 26.2469 142.819 26.9324 143.455C27.5973 144.071 28.1934 144.757 28.7106 145.502L29.5302 142.931C29.7185 142.461 29.873 142.08 29.9934 141.788C30.0829 141.548 30.217 141.328 30.3885 141.138C30.5317 140.996 30.7128 140.898 30.9102 140.855C31.1987 140.801 31.4921 140.777 31.7855 140.784H35.9932C36.2402 140.789 36.4862 140.817 36.7278 140.869C37.007 140.924 37.2633 141.061 37.4627 141.264C37.7075 141.448 37.9019 141.691 38.0276 141.97C38.145 142.256 38.2027 142.563 38.1973 142.873L38.1896 174.707ZM10.373 158.893C10.3636 160.08 10.5594 161.26 10.9518 162.38C11.3102 163.417 11.8718 164.372 12.6035 165.19C13.3268 165.986 14.2063 166.626 15.1874 167.068C16.2394 167.539 17.3813 167.775 18.5338 167.76C19.7407 167.771 20.9373 167.536 22.0502 167.068C23.1025 166.627 24.0611 165.989 24.8748 165.19C25.6827 164.388 26.3215 163.433 26.7534 162.38C27.6572 160.158 27.6572 157.67 26.7534 155.447C26.3151 154.376 25.6776 153.399 24.8748 152.566C24.0696 151.735 23.1102 151.069 22.0502 150.604C20.9419 150.119 19.7435 149.874 18.5338 149.885C17.3784 149.87 16.2346 150.116 15.1874 150.604C14.1984 151.071 13.3182 151.739 12.6035 152.566C11.877 153.414 11.3166 154.391 10.9518 155.447C10.5631 156.554 10.3673 157.72 10.373 158.893Z" fill="#5A5A5A"/>
<path d="M43.8105 142.087C44.0304 141.893 44.2959 141.757 44.5823 141.692C44.836 141.637 45.0946 141.609 45.354 141.607H49.6175C49.9196 141.599 50.2191 141.662 50.4925 141.791C50.7309 141.91 50.9413 142.078 51.11 142.285C51.2823 142.497 51.4203 142.734 51.5191 142.989C51.622 143.252 51.7208 143.524 51.8155 143.805L52.4082 146.283C53.1352 144.841 54.2503 143.632 55.628 142.791C56.5312 142.244 57.505 141.822 58.5222 141.538C59.8054 141.188 61.1317 141.022 62.4614 141.045C63.5495 141.034 64.6349 141.152 65.6951 141.397C66.6251 141.617 67.5193 141.967 68.3502 142.439C69.1526 142.901 69.8889 143.47 70.5389 144.129C71.2296 144.835 71.8533 145.604 72.4021 146.425C72.8462 145.743 73.3833 145.127 73.998 144.594C74.767 143.912 75.6155 143.326 76.525 142.848C77.5662 142.298 78.6645 141.864 79.8003 141.553C81.0513 141.209 82.3435 141.039 83.6408 141.047C85.5862 141 87.5142 141.424 89.2609 142.282C90.8351 143.086 92.2026 144.242 93.2572 145.661C94.3578 147.165 95.1672 148.861 95.6436 150.663C96.1814 152.655 96.4472 154.71 96.4338 156.773V175.271C96.4764 175.85 96.3122 176.425 95.9707 176.895C95.7802 177.091 95.5485 177.242 95.2922 177.338C95.0358 177.433 94.7613 177.47 94.4889 177.446H87.9736C87.3877 177.508 86.7985 177.363 86.3079 177.037C86.13 176.814 85.9984 176.558 85.9207 176.284C85.8431 176.01 85.821 175.723 85.8557 175.441V156.773C85.8624 156.003 85.7334 155.238 85.4745 154.513C85.2371 153.846 84.878 153.228 84.4156 152.692C83.9603 152.171 83.3967 151.756 82.7641 151.477C82.0833 151.178 81.3464 151.029 80.603 151.038C79.9031 151.035 79.2104 151.18 78.5701 151.463C77.9343 151.741 77.358 152.139 76.8722 152.634C76.3684 153.155 75.9705 153.769 75.7006 154.442C75.4019 155.182 75.2528 155.974 75.2622 156.773V175.271C75.3046 175.85 75.1406 176.425 74.7992 176.895C74.6086 177.091 74.3764 177.243 74.1197 177.338C73.8631 177.433 73.5884 177.47 73.3157 177.446H66.7927C66.2063 177.508 65.6167 177.363 65.1257 177.037C64.9478 176.814 64.816 176.558 64.7383 176.284C64.6607 176.01 64.6386 175.723 64.6733 175.441V156.773C64.6797 156.005 64.5603 155.242 64.3198 154.513C64.1005 153.846 63.7553 153.228 63.3027 152.692C62.861 152.174 62.3116 151.76 61.6928 151.477C61.0229 151.176 60.2951 151.027 59.561 151.038C58.8764 151.04 58.1993 151.18 57.5699 151.449C56.919 151.723 56.3249 152.115 55.818 152.607C55.2854 153.126 54.8458 153.732 54.5182 154.4C54.1628 155.124 53.9566 155.911 53.9117 156.716V175.354C53.91 175.683 53.8477 176.008 53.728 176.314C53.6241 176.61 53.4316 176.866 53.1768 177.049C52.9628 177.185 52.7298 177.29 52.4853 177.358C52.2404 177.418 51.9888 177.446 51.7367 177.443H45.371C45.0695 177.49 44.7612 177.468 44.4698 177.377C44.1783 177.287 43.9116 177.13 43.6904 176.92C43.4692 176.71 43.2994 176.451 43.1941 176.165C43.0889 175.878 43.0511 175.571 43.0835 175.268V143.688C43.0804 143.345 43.1632 143.006 43.3243 142.703C43.4758 142.411 43.7056 142.168 43.988 141.999L43.8105 142.087Z" fill="#5A5A5A"/>
<path d="M101.339 129.502C101.308 129.203 101.338 128.9 101.425 128.611C101.512 128.323 101.655 128.054 101.847 127.821C102.289 127.457 102.857 127.279 103.429 127.327H109.981C110.555 127.3 111.12 127.475 111.577 127.821C111.799 128.038 111.968 128.301 112.073 128.592C112.178 128.884 112.216 129.195 112.184 129.502V135.01C112.179 135.262 112.126 135.511 112.03 135.744C111.92 136.018 111.772 136.275 111.591 136.507C111.402 136.752 111.167 136.958 110.9 137.114C110.621 137.276 110.304 137.359 109.981 137.355H103.429C102.035 137.355 101.339 136.573 101.339 135.011V129.502ZM101.339 143.791C101.325 143.231 101.504 142.682 101.847 142.238C102.04 142.013 102.285 141.837 102.56 141.724C102.835 141.611 103.133 141.564 103.429 141.588H109.895C110.147 141.594 110.397 141.646 110.63 141.743C110.899 141.85 111.147 142.003 111.364 142.195C111.592 142.395 111.787 142.628 111.943 142.887C112.106 143.159 112.189 143.472 112.184 143.79V175.278C112.206 175.576 112.164 175.874 112.062 176.154C111.96 176.434 111.799 176.689 111.591 176.902C111.117 177.297 110.509 177.495 109.893 177.453H103.427C102.034 177.453 101.337 176.728 101.337 175.278L101.339 143.791Z" fill="#5A5A5A"/>
<path d="M117.069 129.467C117.051 128.923 117.21 128.388 117.521 127.942C117.71 127.721 117.951 127.549 118.221 127.441C118.492 127.334 118.785 127.294 119.074 127.324H125.992C126.199 127.329 126.402 127.382 126.585 127.479C126.802 127.59 126.998 127.739 127.164 127.917C127.351 128.117 127.503 128.346 127.616 128.595C127.741 128.869 127.804 129.168 127.8 129.47V175.275C127.821 175.574 127.778 175.873 127.673 176.154C127.569 176.434 127.405 176.688 127.193 176.899C126.76 177.276 126.2 177.474 125.626 177.45H119.074C118.79 177.48 118.504 177.446 118.235 177.351C117.966 177.255 117.722 177.101 117.521 176.899C117.188 176.426 117.028 175.853 117.069 175.275V129.467Z" fill="#5A5A5A"/>
<path d="M155.522 165.754C155.744 165.585 155.999 165.465 156.271 165.401C156.452 165.36 156.636 165.337 156.822 165.33C157.125 165.327 157.425 165.394 157.697 165.528C158.038 165.736 158.319 166.028 158.516 166.375L161.679 171.148C161.78 171.311 161.87 171.48 161.948 171.656C162.02 171.796 162.063 171.95 162.074 172.108C162.082 172.303 162.049 172.497 161.979 172.679C161.909 172.861 161.802 173.027 161.665 173.167C161.395 173.437 161.097 173.678 160.776 173.886C159.21 174.97 157.505 175.84 155.707 176.47C153.833 177.126 151.861 177.455 149.876 177.444C148.221 177.449 146.573 177.23 144.976 176.794C143.437 176.374 141.96 175.751 140.585 174.942C139.227 174.14 137.975 173.173 136.857 172.061C135.733 170.949 134.765 169.691 133.977 168.32C133.175 166.921 132.552 165.427 132.125 163.873C131.24 160.604 131.24 157.159 132.125 153.891C132.549 152.335 133.172 150.839 133.977 149.442C134.768 148.077 135.736 146.824 136.857 145.714C137.973 144.605 139.226 143.641 140.585 142.848C143.407 141.211 146.613 140.354 149.876 140.363C151.803 140.344 153.722 140.62 155.567 141.181C157.316 141.731 158.969 142.55 160.466 143.609L160.381 143.524C160.764 143.743 161.1 144.035 161.369 144.385C161.624 144.745 161.753 145.179 161.736 145.62C161.726 145.994 161.608 146.356 161.398 146.665L158.885 150.929C158.725 151.315 158.461 151.649 158.122 151.895C157.783 152.14 157.382 152.286 156.965 152.318C156.754 152.309 156.546 152.266 156.348 152.191C156.056 152.083 155.781 151.936 155.528 151.754C154.694 151.205 153.798 150.755 152.859 150.413C151.886 150.061 150.858 149.885 149.823 149.891C148.691 149.879 147.571 150.125 146.548 150.61C145.567 151.077 144.696 151.746 143.992 152.572C143.272 153.425 142.712 154.401 142.34 155.453C141.549 157.696 141.549 160.143 142.34 162.386C142.706 163.42 143.267 164.373 143.992 165.196C144.725 166.015 145.624 166.668 146.63 167.111C147.635 167.554 148.724 167.777 149.823 167.766C150.858 167.773 151.884 167.581 152.845 167.201C153.789 166.82 154.686 166.335 155.522 165.754Z" fill="#5A5A5A"/>
<path d="M200.056 174.707C200.057 175.021 199.999 175.332 199.886 175.624C199.613 176.142 199.145 176.531 198.586 176.705C198.345 176.757 198.099 176.785 197.852 176.79H192.295C191.968 176.801 191.641 176.749 191.335 176.635C191.103 176.542 190.899 176.391 190.742 176.197C190.579 175.988 190.45 175.755 190.361 175.505C190.258 175.233 190.15 174.936 190.037 174.615L189.669 173.344C189.126 173.883 188.545 174.383 187.933 174.842C187.26 175.346 186.542 175.785 185.787 176.155C184.983 176.548 184.141 176.858 183.274 177.081C182.367 177.318 181.433 177.437 180.496 177.435C178.831 177.441 177.173 177.223 175.567 176.785C172.492 175.95 169.692 174.318 167.448 172.055C165.19 169.782 163.565 166.959 162.732 163.865C162.295 162.24 162.076 160.564 162.083 158.881C162.064 156.44 162.528 154.019 163.449 151.758C164.37 149.497 165.729 147.44 167.448 145.707C169.16 143.995 171.195 142.641 173.435 141.723C175.675 140.804 178.075 140.339 180.496 140.355C181.595 140.347 182.691 140.48 183.757 140.75C184.72 140.999 185.649 141.361 186.525 141.831C187.349 142.273 188.113 142.819 188.799 143.455C189.464 144.071 190.061 144.757 190.578 145.502L191.398 142.931C191.586 142.461 191.741 142.08 191.861 141.788C191.951 141.548 192.085 141.328 192.256 141.138C192.399 140.996 192.58 140.898 192.778 140.855C193.066 140.801 193.36 140.777 193.653 140.784H197.861C198.108 140.789 198.354 140.817 198.596 140.869C198.875 140.924 199.131 141.061 199.33 141.264C199.575 141.448 199.769 141.691 199.895 141.97C200.013 142.256 200.07 142.563 200.065 142.873L200.056 174.707ZM172.239 158.893C172.23 160.08 172.426 161.26 172.818 162.38C173.177 163.417 173.738 164.372 174.47 165.19C175.193 165.986 176.072 166.626 177.054 167.068C178.106 167.539 179.247 167.775 180.4 167.76C181.607 167.771 182.803 167.536 183.916 167.068C184.968 166.627 185.926 165.989 186.739 165.19C187.547 164.388 188.186 163.433 188.618 162.38C189.522 160.158 189.522 157.67 188.618 155.447C188.18 154.376 187.542 153.399 186.739 152.566C185.935 151.735 184.976 151.069 183.916 150.604C182.808 150.119 181.61 149.874 180.4 149.885C179.245 149.87 178.101 150.116 177.054 150.604C176.065 151.071 175.184 151.739 174.47 152.566C173.743 153.414 173.183 154.391 172.818 155.447C172.429 156.554 172.233 157.72 172.239 158.893Z" fill="#5A5A5A"/>
<path d="M204.944 143.672C204.936 143.352 205.004 143.035 205.141 142.746C205.264 142.493 205.442 142.271 205.663 142.096C205.882 141.925 206.131 141.796 206.397 141.715C206.657 141.632 206.929 141.589 207.202 141.587H211.467C211.674 141.577 211.881 141.61 212.075 141.683C212.27 141.756 212.447 141.867 212.597 142.011C212.9 142.325 213.144 142.691 213.317 143.092C213.527 143.558 213.701 144.04 213.839 144.532C213.987 145.051 214.166 145.56 214.376 146.057C214.941 145.44 215.501 144.828 216.057 144.222C216.602 143.629 217.203 143.09 217.851 142.612C218.498 142.138 219.205 141.753 219.955 141.468C220.791 141.164 221.676 141.016 222.566 141.031C223.48 141.022 224.393 141.098 225.293 141.257C226.071 141.401 226.832 141.624 227.566 141.92C228.309 142.227 229.022 142.601 229.698 143.036C230.403 143.488 231.171 144.016 231.999 144.619C232.334 144.759 232.624 144.989 232.838 145.282C233.052 145.576 233.182 145.922 233.214 146.284C233.183 146.798 233.017 147.294 232.734 147.724L230.164 152.102C229.968 152.431 229.692 152.706 229.361 152.898C229.03 153.091 228.655 153.196 228.272 153.202C227.831 153.188 227.399 153.083 227.001 152.894C226.284 152.169 225.449 151.573 224.531 151.129C223.629 150.73 222.651 150.533 221.665 150.55C221.007 150.537 220.352 150.642 219.731 150.859C219.181 151.063 218.67 151.359 218.22 151.734C217.745 152.135 217.319 152.59 216.95 153.089C216.553 153.617 216.158 154.201 215.762 154.84V175.286C215.806 175.874 215.618 176.457 215.241 176.91C215.003 177.114 214.727 177.269 214.429 177.363C214.13 177.458 213.816 177.491 213.504 177.461H207.149C206.852 177.505 206.549 177.48 206.263 177.387C205.978 177.294 205.718 177.136 205.504 176.925C205.29 176.713 205.128 176.455 205.032 176.171C204.935 175.887 204.906 175.584 204.947 175.286L204.944 143.672Z" fill="#5A5A5A"/>
<path d="M106.825 192.387C107.099 191.884 107.425 191.41 107.799 190.975C108.251 190.441 108.77 189.966 109.343 189.563C109.98 189.114 110.673 188.751 111.405 188.482C112.219 188.183 113.08 188.035 113.947 188.045C114.867 188.04 115.786 188.083 116.701 188.172C117.489 188.251 118.269 188.403 119.03 188.624C119.768 188.843 120.483 189.136 121.162 189.5C121.916 189.91 122.639 190.378 123.323 190.898C123.585 191.099 123.835 191.316 124.071 191.548C124.2 191.665 124.303 191.808 124.373 191.968C124.444 192.127 124.48 192.3 124.48 192.474C124.482 192.671 124.433 192.866 124.338 193.039L122.673 195.609C122.585 195.743 122.468 195.855 122.332 195.938C122.195 196.021 122.042 196.073 121.882 196.089C121.728 196.088 121.579 196.033 121.459 195.935C121.328 195.832 121.168 195.714 120.98 195.581C119.932 194.851 118.789 194.266 117.584 193.845C116.449 193.472 115.262 193.286 114.067 193.294C113.136 193.292 112.214 193.475 111.354 193.831C110.494 194.188 109.713 194.71 109.055 195.37C108.362 196.075 107.815 196.91 107.445 197.827C107.027 198.872 106.821 199.99 106.839 201.116V223.223C106.862 223.391 106.845 223.561 106.791 223.721C106.737 223.882 106.647 224.027 106.527 224.146C106.408 224.266 106.262 224.357 106.102 224.411C105.942 224.465 105.772 224.481 105.604 224.458H102.671C101.805 224.458 101.372 224.046 101.373 223.223V189.844C101.366 189.676 101.395 189.508 101.458 189.352C101.522 189.196 101.618 189.056 101.74 188.941C101.977 188.718 102.291 188.596 102.616 188.601H105.548C105.723 188.593 105.897 188.622 106.06 188.685C106.223 188.748 106.371 188.845 106.495 188.969C106.609 189.084 106.699 189.22 106.759 189.371C106.82 189.521 106.85 189.682 106.848 189.844L106.825 192.387Z" fill="#5A5A5A"/>
<path d="M151.727 215.601C151.901 215.447 152.085 215.306 152.278 215.178C152.388 215.093 152.516 215.033 152.651 215.002C152.787 214.972 152.927 214.971 153.063 215C153.199 215.03 153.327 215.089 153.438 215.173C153.549 215.257 153.64 215.364 153.705 215.487C154.081 215.995 154.387 216.407 154.621 216.721C154.856 217.036 155.049 217.29 155.2 217.484C155.351 217.69 155.464 217.84 155.54 217.935C155.63 218.042 155.706 218.161 155.765 218.288C155.823 218.417 155.852 218.556 155.85 218.697C155.838 218.938 155.754 219.169 155.609 219.361C155.371 219.676 155.091 219.957 154.776 220.195C153.974 220.83 153.13 221.41 152.249 221.931C151.368 222.451 150.448 222.899 149.495 223.272C148.512 223.655 147.497 223.948 146.461 224.148C143.726 224.658 140.91 224.537 138.229 223.794C136.68 223.358 135.194 222.722 133.81 221.902C131.046 220.268 128.731 217.973 127.073 215.223C126.242 213.841 125.596 212.355 125.153 210.803C124.698 209.21 124.47 207.56 124.476 205.903C124.466 202.628 125.308 199.408 126.917 196.556C128.485 193.793 130.755 191.494 133.498 189.891C134.906 189.071 136.415 188.44 137.988 188.012C139.648 187.564 141.362 187.34 143.082 187.349C144.498 187.349 145.91 187.51 147.289 187.829C148.675 188.146 150.021 188.615 151.303 189.227C152.588 189.842 153.796 190.605 154.904 191.501C156.029 192.41 157.04 193.453 157.912 194.607C159.139 196.271 160.049 198.148 160.595 200.142C161.209 202.472 161.486 204.878 161.415 207.287C161.415 208.172 161.001 208.615 160.172 208.615H130.406C130.716 210.096 131.285 211.511 132.087 212.795C132.868 214.053 133.84 215.182 134.967 216.141C136.081 217.088 137.346 217.842 138.709 218.371C140.067 218.904 141.513 219.178 142.972 219.176C143.917 219.186 144.861 219.086 145.783 218.879C146.572 218.699 147.339 218.434 148.071 218.089C148.739 217.771 149.377 217.392 149.977 216.959C150.56 216.535 151.126 216.097 151.675 215.646L151.727 215.601ZM136.251 194.702C134.805 195.675 133.55 196.906 132.547 198.331C131.519 199.775 130.798 201.414 130.429 203.147H155.958C155.77 201.641 155.276 200.189 154.504 198.882C153.759 197.623 152.787 196.512 151.638 195.607C150.47 194.693 149.157 193.982 147.754 193.503C146.315 193.004 144.801 192.751 143.278 192.754C142.052 192.755 140.832 192.916 139.649 193.234C138.452 193.558 137.308 194.053 136.253 194.704L136.251 194.702Z" fill="#5A5A5A"/>
<path d="M169.622 188.436C169.98 189.377 170.443 190.572 171.011 192.021C171.579 193.47 172.191 195.037 172.846 196.723C173.506 198.408 174.189 200.145 174.895 201.934C175.601 203.722 176.278 205.426 176.928 207.045C177.577 208.663 178.17 210.137 178.707 211.464C179.245 212.791 179.672 213.841 179.991 214.613C180.292 213.841 180.706 212.791 181.234 211.464C181.762 210.137 182.341 208.659 182.971 207.031C183.601 205.403 184.265 203.694 184.962 201.905C185.659 200.115 186.332 198.379 186.981 196.695C187.63 195.01 188.233 193.443 188.788 191.993C189.344 190.544 189.8 189.348 190.158 188.408C190.274 188.108 190.469 187.845 190.722 187.645C190.991 187.451 191.317 187.351 191.649 187.363H194.784C195.607 187.363 196.018 187.692 196.018 188.352C196.017 188.419 196.008 188.485 195.991 188.55C195.968 188.636 195.94 188.722 195.906 188.805C195.866 188.904 195.838 189.008 195.821 189.113L189.184 205.464L177.888 233.139V233.081C177.791 233.398 177.591 233.673 177.32 233.862C177.049 234.052 176.722 234.145 176.392 234.126H173.597C172.693 234.126 172.241 233.778 172.241 233.081C172.242 232.943 172.26 232.806 172.297 232.673C172.324 232.585 172.343 232.495 172.354 232.404L177.07 221.023L163.966 189.139C163.948 189.082 163.929 189.017 163.909 188.942C163.867 188.756 163.848 188.567 163.852 188.377C163.852 187.717 164.285 187.387 165.152 187.387H168.117C168.448 187.375 168.775 187.475 169.043 187.67C169.302 187.868 169.502 188.133 169.622 188.436Z" fill="#5A5A5A"/>
</svg>
